<svg width="400" height="400" viewBox="0 0 400 400" fill="none" xmlns="http://www.w3.org/2000/svg">
<g clip-path="url(#clip0_287_74557)">
<path d="M200 230.21C194.025 230.212 188.183 228.442 183.213 225.124C178.244 221.805 174.37 217.088 172.082 211.568C169.794 206.048 169.195 199.973 170.359 194.112C171.524 188.252 174.4 182.868 178.625 178.642C182.849 174.416 188.232 171.538 194.092 170.371C199.953 169.205 206.028 169.802 211.548 172.089C217.069 174.375 221.788 178.247 225.108 183.215C228.428 188.183 230.2 194.025 230.2 200C230.192 208.008 227.008 215.686 221.346 221.349C215.685 227.013 208.008 230.199 200 230.21ZM200 170.28C194.119 170.278 188.37 172.02 183.479 175.286C178.588 178.552 174.776 183.195 172.525 188.628C170.273 194.061 169.684 200.04 170.831 205.808C171.977 211.576 174.809 216.874 178.967 221.032C183.126 225.191 188.424 228.022 194.192 229.169C199.96 230.316 205.939 229.727 211.372 227.475C216.804 225.224 221.448 221.412 224.714 216.521C227.98 211.63 229.722 205.881 229.72 200C229.709 192.121 226.575 184.568 221.003 178.997C215.432 173.425 207.879 170.291 200 170.28Z" fill="white"/>
<path d="M200 238.41C192.403 238.41 184.977 236.157 178.66 231.937C172.344 227.716 167.421 221.717 164.514 214.699C161.607 207.68 160.846 199.957 162.328 192.506C163.81 185.056 167.468 178.212 172.84 172.84C178.212 167.468 185.056 163.81 192.507 162.328C199.957 160.846 207.68 161.607 214.699 164.514C221.717 167.421 227.716 172.344 231.937 178.66C236.157 184.977 238.41 192.403 238.41 200C238.399 210.184 234.349 219.947 227.148 227.148C219.947 234.349 210.184 238.399 200 238.41ZM200 162.29C192.542 162.29 185.251 164.502 179.049 168.645C172.848 172.789 168.015 178.678 165.16 185.569C162.306 192.459 161.559 200.042 163.014 207.357C164.469 214.672 168.061 221.391 173.335 226.665C178.609 231.939 185.328 235.53 192.643 236.985C199.958 238.44 207.54 237.694 214.431 234.839C221.322 231.985 227.211 227.152 231.354 220.95C235.498 214.749 237.71 207.458 237.71 200C237.699 190.002 233.723 180.416 226.653 173.347C219.583 166.277 209.998 162.3 200 162.29Z" fill="white"/>
<path d="M200 246.67C190.779 246.67 181.766 243.936 174.099 238.813C166.433 233.69 160.457 226.409 156.929 217.89C153.4 209.372 152.477 199.998 154.276 190.955C156.075 181.911 160.515 173.604 167.035 167.084C173.555 160.564 181.861 156.124 190.905 154.325C199.948 152.527 209.322 153.45 217.841 156.978C226.359 160.507 233.64 166.482 238.763 174.149C243.886 181.816 246.62 190.829 246.62 200.05C246.607 212.41 241.691 224.26 232.951 233C224.211 241.74 212.36 246.656 200 246.67ZM200 154.35C190.961 154.35 182.126 157.03 174.61 162.052C167.095 167.073 161.238 174.211 157.779 182.561C154.32 190.912 153.415 200.1 155.178 208.965C156.941 217.83 161.294 225.973 167.685 232.364C174.076 238.756 182.219 243.108 191.084 244.872C199.949 246.635 209.138 245.73 217.489 242.271C225.839 238.812 232.976 232.955 237.998 225.439C243.02 217.924 245.7 209.088 245.7 200.05C245.7 187.925 240.887 176.296 232.318 167.717C223.749 159.139 212.125 154.313 200 154.3V154.35Z" fill="white"/>
<path d="M200 254.83C189.156 254.832 178.554 251.618 169.535 245.594C160.517 239.571 153.488 231.008 149.337 220.989C145.185 210.971 144.098 199.946 146.212 189.309C148.327 178.673 153.548 168.902 161.216 161.233C168.884 153.564 178.653 148.341 189.29 146.224C199.926 144.108 210.951 145.193 220.971 149.343C230.99 153.492 239.554 160.52 245.579 169.537C251.604 178.554 254.82 189.155 254.82 200C254.802 214.534 249.02 228.468 238.744 238.747C228.468 249.025 214.535 254.809 200 254.83ZM200 146.32C189.381 146.318 178.999 149.465 170.168 155.364C161.337 161.263 154.454 169.648 150.389 179.459C146.324 189.27 145.26 200.066 147.331 210.482C149.403 220.898 154.516 230.465 162.026 237.975C169.535 245.484 179.103 250.597 189.518 252.669C199.934 254.74 210.73 253.676 220.541 249.611C230.352 245.546 238.737 238.663 244.636 229.832C250.535 221.002 253.682 210.62 253.68 200C253.664 185.768 248.004 172.124 237.94 162.06C227.877 151.997 214.232 146.336 200 146.32Z" fill="white"/>
<path d="M200 263.04C187.54 263.04 175.359 259.345 164.999 252.423C154.639 245.5 146.564 235.661 141.796 224.149C137.027 212.637 135.78 199.97 138.211 187.749C140.641 175.529 146.642 164.303 155.452 155.492C164.263 146.682 175.489 140.681 187.709 138.251C199.93 135.82 212.597 137.067 224.109 141.836C235.621 146.604 245.46 154.679 252.383 165.039C259.305 175.399 263 187.58 263 200.04C262.971 216.74 256.324 232.747 244.516 244.556C232.707 256.364 216.7 263.011 200 263.04ZM200 138.33C187.8 138.328 175.873 141.944 165.729 148.721C155.584 155.498 147.677 165.131 143.007 176.402C138.337 187.672 137.115 200.075 139.495 212.041C141.874 224.006 147.749 234.998 156.376 243.624C165.002 252.251 175.994 258.126 187.959 260.505C199.925 262.885 212.328 261.663 223.599 256.993C234.869 252.323 244.502 244.416 251.279 234.271C258.056 224.127 261.672 212.2 261.67 200C261.649 183.651 255.145 167.977 243.584 156.416C232.023 144.855 216.35 138.351 200 138.33Z" fill="white"/>
<path d="M200 271.24C185.91 271.24 172.136 267.062 160.421 259.234C148.706 251.406 139.575 240.28 134.183 227.262C128.791 214.245 127.38 199.921 130.129 186.102C132.877 172.282 139.662 159.589 149.625 149.625C159.589 139.662 172.282 132.877 186.102 130.129C199.921 127.38 214.245 128.791 227.262 134.183C240.28 139.575 251.406 148.706 259.234 160.421C267.062 172.136 271.24 185.91 271.24 200C271.219 218.887 263.706 236.995 250.351 250.351C236.995 263.706 218.888 271.219 200 271.24ZM200 130.34C186.22 130.338 172.748 134.422 161.29 142.077C149.831 149.732 140.899 160.613 135.625 173.344C130.351 186.075 128.97 200.084 131.658 213.599C134.346 227.115 140.982 239.53 150.726 249.274C160.47 259.018 172.885 265.654 186.4 268.342C199.916 271.03 213.925 269.649 226.656 264.375C239.387 259.1 250.268 250.169 257.923 238.71C265.577 227.251 269.662 213.78 269.66 200C269.639 181.531 262.293 163.825 249.234 150.766C236.174 137.707 218.468 130.361 200 130.34Z" fill="white"/>
<path d="M200 279.45C184.286 279.452 168.924 274.794 155.857 266.065C142.791 257.336 132.606 244.928 126.591 230.411C120.576 215.894 119.001 199.918 122.065 184.506C125.13 169.094 132.696 154.936 143.807 143.824C154.918 132.711 169.075 125.144 184.487 122.077C199.899 119.011 215.874 120.584 230.392 126.597C244.91 132.61 257.319 142.793 266.05 155.859C274.78 168.924 279.44 184.286 279.44 200C279.416 221.062 271.039 241.255 256.147 256.15C241.255 271.044 221.063 279.423 200 279.45ZM200 122.35C184.643 122.35 169.63 126.904 156.86 135.436C144.091 143.968 134.138 156.096 128.261 170.284C122.384 184.473 120.846 200.086 123.842 215.149C126.838 230.211 134.234 244.047 145.093 254.907C155.953 265.766 169.789 273.162 184.851 276.158C199.914 279.154 215.527 277.616 229.716 271.739C243.904 265.862 256.031 255.909 264.564 243.14C273.096 230.37 277.65 215.358 277.65 200C277.626 179.413 269.438 159.676 254.881 145.119C240.324 130.562 220.587 122.374 200 122.35Z" fill="white"/>
<path d="M200 287.67C182.662 287.672 165.713 282.532 151.296 272.901C136.879 263.27 125.642 249.58 119.006 233.563C112.369 217.545 110.632 199.919 114.013 182.914C117.395 165.909 125.743 150.289 138.002 138.028C150.261 125.768 165.88 117.418 182.885 114.035C199.889 110.652 217.516 112.387 233.534 119.021C249.552 125.656 263.243 136.892 272.876 151.307C282.509 165.723 287.65 182.672 287.65 200.01C287.626 223.25 278.385 245.531 261.952 261.965C245.52 278.399 223.24 287.643 200 287.67ZM200 114.37C183.062 114.37 166.505 119.392 152.421 128.803C138.338 138.213 127.361 151.588 120.879 167.237C114.397 182.885 112.701 200.105 116.006 216.717C119.31 233.33 127.467 248.589 139.444 260.566C151.421 272.543 166.68 280.7 183.293 284.004C199.905 287.309 217.125 285.613 232.773 279.131C248.422 272.649 261.797 261.672 271.207 247.589C280.618 233.505 285.64 216.948 285.64 200.01C285.616 177.303 276.586 155.533 260.531 139.476C244.476 123.419 222.707 114.386 200 114.36V114.37Z" fill="white"/>
<path d="M200 295.86C181.041 295.86 162.507 290.238 146.743 279.704C130.979 269.171 118.692 254.2 111.437 236.684C104.182 219.168 102.283 199.893 105.982 181.298C109.681 162.703 118.81 145.623 132.217 132.216C145.623 118.81 162.704 109.68 181.299 105.982C199.894 102.283 219.168 104.181 236.684 111.437C254.2 118.692 269.172 130.979 279.705 146.743C290.238 162.507 295.86 181.04 295.86 200C295.823 225.412 285.712 249.773 267.742 267.742C249.773 285.711 225.412 295.823 200 295.86ZM200 106.38C181.481 106.378 163.377 111.868 147.978 122.155C132.579 132.442 120.577 147.065 113.489 164.174C106.401 181.283 104.546 200.11 108.159 218.274C111.771 236.437 120.689 253.121 133.784 266.216C146.879 279.311 163.563 288.229 181.726 291.841C199.89 295.453 218.716 293.598 235.825 286.511C252.934 279.423 267.557 267.42 277.845 252.021C288.132 236.623 293.622 218.519 293.62 200C293.591 175.179 283.718 151.383 266.167 133.833C248.616 116.282 224.821 106.409 200 106.38Z" fill="white"/>
<path d="M200 304.07C179.416 304.072 159.294 297.97 142.179 286.536C125.063 275.101 111.723 258.849 103.845 239.832C95.9663 220.816 93.904 199.891 97.9184 179.703C101.933 159.515 111.844 140.97 126.398 126.415C140.952 111.859 159.495 101.947 179.683 97.9301C199.871 93.9138 220.797 95.9741 239.813 103.851C258.83 111.727 275.084 125.066 286.52 142.18C297.956 159.295 304.06 179.416 304.06 200C304.031 227.59 293.058 254.042 273.55 273.553C254.041 293.063 227.59 304.038 200 304.07ZM200 98.3897C179.901 98.3877 160.252 104.346 143.539 115.512C126.826 126.677 113.8 142.548 106.107 161.117C98.4145 179.686 96.4013 200.119 100.322 219.832C104.243 239.546 113.921 257.653 128.134 271.866C142.346 286.078 160.454 295.757 180.167 299.678C199.88 303.598 220.314 301.585 238.883 293.892C257.452 286.2 273.323 273.173 284.488 256.461C295.653 239.748 301.612 220.099 301.61 200C301.578 173.061 290.863 147.234 271.814 128.186C252.765 109.137 226.939 98.4214 200 98.3897Z" fill="white"/>
<path d="M200 312.28C177.793 312.282 156.083 305.698 137.618 293.362C119.152 281.026 104.759 263.491 96.2596 242.974C87.7598 222.458 85.535 199.882 89.8663 178.101C94.1975 156.32 104.89 136.313 120.593 120.609C136.295 104.906 156.301 94.2111 178.082 89.878C199.862 85.5448 222.438 87.7677 242.955 96.2656C263.472 104.763 281.009 119.155 293.347 137.619C305.685 156.084 312.27 177.792 312.27 200C312.235 229.766 300.396 258.303 279.349 279.352C258.302 300.401 229.766 312.243 200 312.28ZM200 90.3997C178.32 90.3978 157.127 96.8248 139.1 108.868C121.073 120.912 107.023 138.03 98.7254 158.059C90.428 178.088 88.2566 200.128 92.4856 221.391C96.7147 242.654 107.154 262.186 122.484 277.516C137.814 292.846 157.345 303.285 178.608 307.514C199.872 311.743 221.911 309.572 241.94 301.274C261.969 292.977 279.088 278.926 291.131 260.9C303.175 242.873 309.602 221.679 309.6 200C309.568 170.942 298.011 143.083 277.464 122.536C256.917 101.989 229.058 90.4315 200 90.3997Z" fill="white"/>
<path d="M200 320.49C176.169 320.492 152.872 313.427 133.056 300.188C113.241 286.95 97.7958 268.133 88.6746 246.116C79.5535 224.1 77.166 199.873 81.814 176.5C86.462 153.126 97.9367 131.656 114.787 114.804C131.638 97.9522 153.107 86.4757 176.48 81.8257C199.853 77.1758 224.08 79.5613 246.097 88.6806C268.114 97.8 286.933 113.243 300.173 133.058C313.413 152.873 320.48 176.169 320.48 200C320.446 231.943 307.742 262.569 285.155 285.158C262.568 307.746 231.944 320.453 200 320.49ZM200 82.4098C176.743 82.4098 154.008 89.3064 134.67 102.227C115.333 115.148 100.261 133.513 91.3609 155C82.4608 176.487 80.1323 200.13 84.6695 222.941C89.2067 245.751 100.406 266.703 116.851 283.149C133.297 299.594 154.249 310.793 177.059 315.33C199.87 319.868 223.513 317.539 245 308.639C266.487 299.739 284.852 284.667 297.773 265.329C310.693 245.992 317.59 223.257 317.59 200C317.556 168.824 305.156 138.934 283.111 116.889C261.066 94.8442 231.176 82.4442 200 82.4098Z" fill="white"/>
<path d="M347.93 197.07C348.509 197.07 349.076 197.242 349.558 197.564C350.039 197.886 350.415 198.344 350.637 198.879C350.859 199.414 350.917 200.004 350.804 200.572C350.691 201.14 350.411 201.662 350.002 202.072C349.592 202.482 349.07 202.761 348.501 202.874C347.933 202.987 347.344 202.929 346.809 202.707C346.273 202.486 345.816 202.11 345.494 201.628C345.172 201.146 345 200.58 345 200C345 199.223 345.309 198.478 345.858 197.928C346.408 197.379 347.153 197.07 347.93 197.07Z" fill="white"/>
<path d="M347.68 209.22C348.258 209.267 348.808 209.485 349.262 209.845C349.716 210.205 350.053 210.692 350.23 211.244C350.407 211.796 350.417 212.388 350.258 212.945C350.098 213.502 349.778 214 349.336 214.374C348.894 214.749 348.35 214.985 347.775 215.051C347.199 215.117 346.617 215.011 346.101 214.746C345.586 214.481 345.16 214.069 344.879 213.562C344.598 213.056 344.473 212.477 344.52 211.9C344.55 211.516 344.656 211.142 344.832 210.799C345.007 210.456 345.249 210.151 345.543 209.902C345.836 209.653 346.176 209.464 346.543 209.347C346.91 209.23 347.297 209.187 347.68 209.22Z" fill="white"/>
<path d="M346.47 221.11C347.042 221.204 347.572 221.466 347.995 221.862C348.418 222.258 348.713 222.77 348.845 223.334C348.977 223.898 348.938 224.488 348.735 225.031C348.531 225.573 348.172 226.042 347.701 226.38C347.231 226.718 346.671 226.909 346.092 226.929C345.513 226.948 344.941 226.796 344.449 226.491C343.957 226.186 343.566 225.742 343.326 225.215C343.086 224.688 343.007 224.101 343.1 223.53C343.162 223.149 343.298 222.785 343.501 222.457C343.704 222.129 343.97 221.845 344.283 221.62C344.596 221.396 344.95 221.235 345.326 221.147C345.701 221.059 346.09 221.047 346.47 221.11Z" fill="white"/>
<path d="M344.33 232.67C344.893 232.808 345.403 233.11 345.795 233.537C346.186 233.965 346.442 234.499 346.53 235.073C346.618 235.646 346.534 236.232 346.288 236.758C346.042 237.283 345.646 237.723 345.15 238.023C344.653 238.323 344.079 238.469 343.5 238.443C342.92 238.416 342.362 238.219 341.895 237.874C341.428 237.53 341.074 237.055 340.877 236.51C340.681 235.964 340.65 235.373 340.79 234.81C340.977 234.057 341.454 233.41 342.118 233.009C342.781 232.607 343.577 232.486 344.33 232.67Z" fill="white"/>
<path d="M341.32 243.98C341.869 244.164 342.352 244.506 342.707 244.963C343.062 245.421 343.273 245.973 343.314 246.551C343.356 247.128 343.225 247.705 342.938 248.209C342.652 248.712 342.223 249.119 341.705 249.379C341.187 249.638 340.604 249.738 340.03 249.667C339.455 249.595 338.914 249.355 338.476 248.976C338.038 248.598 337.722 248.098 337.568 247.54C337.414 246.981 337.428 246.39 337.61 245.84C337.856 245.102 338.385 244.492 339.08 244.144C339.776 243.795 340.581 243.736 341.32 243.98Z" fill="white"/>
<path d="M337.45 254.89C337.984 255.116 338.438 255.496 338.756 255.98C339.074 256.465 339.241 257.033 339.236 257.613C339.231 258.192 339.054 258.758 338.728 259.237C338.401 259.716 337.94 260.087 337.403 260.304C336.865 260.521 336.275 260.574 335.708 260.456C335.14 260.337 334.621 260.053 334.215 259.64C333.809 259.226 333.535 258.701 333.427 258.131C333.319 257.562 333.383 256.973 333.61 256.44C333.914 255.725 334.489 255.161 335.209 254.87C335.929 254.58 336.735 254.587 337.45 254.89Z" fill="white"/>
<path d="M332.77 265.39C333.277 265.664 333.693 266.081 333.965 266.589C334.237 267.098 334.352 267.675 334.297 268.25C334.242 268.824 334.019 269.369 333.656 269.816C333.292 270.264 332.805 270.595 332.255 270.767C331.704 270.939 331.115 270.944 330.562 270.783C330.008 270.622 329.514 270.301 329.142 269.861C328.77 269.42 328.536 268.879 328.47 268.307C328.404 267.734 328.508 267.154 328.77 266.64C328.947 266.292 329.192 265.983 329.49 265.732C329.788 265.48 330.134 265.29 330.507 265.173C330.879 265.057 331.271 265.016 331.66 265.053C332.049 265.091 332.426 265.205 332.77 265.39Z" fill="white"/>
<path d="M327.31 275.44C327.807 275.742 328.203 276.185 328.447 276.713C328.691 277.241 328.773 277.829 328.682 278.404C328.59 278.978 328.33 279.512 327.934 279.938C327.538 280.364 327.024 280.663 326.458 280.796C325.892 280.929 325.299 280.89 324.755 280.685C324.211 280.48 323.74 280.118 323.402 279.644C323.065 279.171 322.875 278.607 322.859 278.026C322.843 277.445 323 276.872 323.31 276.38C323.718 275.728 324.368 275.263 325.117 275.087C325.866 274.911 326.654 275.038 327.31 275.44Z" fill="white"/>
<path d="M321.14 285.01C321.608 285.352 321.964 285.826 322.163 286.37C322.362 286.915 322.395 287.506 322.258 288.07C322.12 288.633 321.819 289.143 321.391 289.535C320.964 289.927 320.43 290.183 319.857 290.271C319.284 290.359 318.698 290.276 318.172 290.031C317.647 289.785 317.206 289.39 316.905 288.894C316.605 288.398 316.458 287.824 316.484 287.245C316.51 286.666 316.707 286.107 317.05 285.64C317.277 285.329 317.563 285.067 317.891 284.867C318.22 284.667 318.584 284.534 318.964 284.475C319.344 284.417 319.732 284.434 320.105 284.526C320.479 284.617 320.83 284.782 321.14 285.01Z" fill="white"/>
<path d="M314.23 294.05C314.67 294.427 314.989 294.926 315.146 295.484C315.303 296.042 315.29 296.634 315.111 297.185C314.931 297.736 314.592 298.221 314.136 298.58C313.681 298.938 313.129 299.153 312.551 299.198C311.973 299.243 311.395 299.115 310.89 298.831C310.385 298.547 309.975 298.12 309.713 297.603C309.45 297.086 309.347 296.503 309.416 295.928C309.485 295.352 309.723 294.81 310.1 294.37C310.607 293.783 311.325 293.419 312.099 293.359C312.873 293.299 313.639 293.548 314.23 294.05Z" fill="white"/>
<path d="M306.67 302.54C307.08 302.95 307.36 303.472 307.473 304.04C307.587 304.609 307.529 305.198 307.307 305.734C307.086 306.27 306.71 306.728 306.228 307.05C305.746 307.372 305.18 307.544 304.6 307.544C304.02 307.544 303.453 307.372 302.971 307.05C302.49 306.728 302.114 306.27 301.892 305.734C301.671 305.198 301.613 304.609 301.727 304.04C301.84 303.472 302.12 302.95 302.53 302.54C302.801 302.267 303.124 302.051 303.479 301.903C303.834 301.756 304.215 301.68 304.6 301.68C304.985 301.68 305.366 301.756 305.721 301.903C306.076 302.051 306.399 302.267 306.67 302.54Z" fill="white"/>
<path d="M298.5 310.42C298.876 310.861 299.113 311.403 299.181 311.978C299.249 312.553 299.145 313.135 298.882 313.651C298.619 314.167 298.21 314.593 297.705 314.877C297.2 315.16 296.622 315.287 296.045 315.243C295.468 315.198 294.917 314.984 294.461 314.626C294.006 314.268 293.667 313.784 293.486 313.234C293.306 312.684 293.293 312.092 293.449 311.535C293.604 310.977 293.921 310.478 294.36 310.1C294.653 309.849 294.992 309.657 295.359 309.537C295.725 309.417 296.112 309.371 296.497 309.4C296.881 309.43 297.256 309.535 297.6 309.71C297.944 309.886 298.25 310.127 298.5 310.42Z" fill="white"/>
<path d="M289.73 317.67C290.072 318.138 290.268 318.696 290.293 319.275C290.318 319.853 290.171 320.426 289.87 320.921C289.569 321.416 289.129 321.811 288.604 322.056C288.079 322.301 287.493 322.385 286.921 322.297C286.348 322.209 285.814 321.953 285.387 321.562C284.96 321.171 284.658 320.662 284.52 320.099C284.382 319.537 284.414 318.946 284.611 318.401C284.809 317.857 285.163 317.383 285.63 317.04C286.258 316.582 287.042 316.391 287.81 316.509C288.578 316.627 289.269 317.044 289.73 317.67Z" fill="white"/>
<path d="M280.41 324.23C280.72 324.722 280.877 325.295 280.861 325.877C280.844 326.458 280.655 327.021 280.318 327.495C279.98 327.968 279.509 328.331 278.965 328.536C278.421 328.741 277.828 328.779 277.262 328.646C276.696 328.513 276.182 328.215 275.786 327.789C275.39 327.363 275.13 326.829 275.038 326.254C274.947 325.68 275.029 325.091 275.273 324.564C275.517 324.036 275.913 323.593 276.41 323.29C277.066 322.888 277.854 322.762 278.603 322.938C279.352 323.114 280.001 323.578 280.41 324.23Z" fill="white"/>
<path d="M270.58 330.08C270.84 330.594 270.943 331.174 270.875 331.746C270.807 332.319 270.572 332.859 270.199 333.298C269.826 333.737 269.331 334.057 268.777 334.217C268.223 334.377 267.635 334.37 267.085 334.196C266.535 334.023 266.048 333.692 265.686 333.243C265.324 332.795 265.102 332.249 265.048 331.676C264.994 331.102 265.111 330.525 265.383 330.017C265.656 329.509 266.072 329.092 266.58 328.82C266.924 328.635 267.302 328.521 267.691 328.485C268.08 328.448 268.473 328.49 268.846 328.607C269.218 328.724 269.564 328.915 269.861 329.168C270.159 329.421 270.404 329.731 270.58 330.08Z" fill="white"/>
<path d="M260.28 335.17C260.505 335.704 260.567 336.292 260.458 336.861C260.349 337.43 260.073 337.954 259.666 338.367C259.259 338.779 258.739 339.062 258.171 339.179C257.604 339.296 257.014 339.242 256.478 339.023C255.941 338.805 255.481 338.433 255.155 337.953C254.83 337.474 254.654 336.909 254.65 336.329C254.646 335.75 254.814 335.182 255.133 334.698C255.451 334.214 255.906 333.835 256.44 333.61C256.795 333.46 257.175 333.382 257.56 333.379C257.945 333.376 258.327 333.449 258.683 333.594C259.04 333.739 259.364 333.953 259.638 334.223C259.912 334.494 260.13 334.815 260.28 335.17Z" fill="white"/>
<path d="M249.54 339.471C249.724 340.02 249.74 340.612 249.588 341.171C249.435 341.73 249.12 342.231 248.683 342.611C248.245 342.991 247.705 343.232 247.13 343.305C246.556 343.378 245.972 343.279 245.454 343.021C244.935 342.762 244.505 342.356 244.217 341.853C243.93 341.35 243.798 340.773 243.838 340.195C243.878 339.617 244.089 339.064 244.444 338.606C244.798 338.147 245.281 337.805 245.83 337.621C246.195 337.498 246.581 337.449 246.965 337.476C247.349 337.503 247.724 337.605 248.069 337.777C248.413 337.948 248.72 338.186 248.973 338.477C249.225 338.768 249.418 339.105 249.54 339.471Z" fill="white"/>
<path d="M238.39 342.94C238.528 343.503 238.495 344.094 238.297 344.638C238.099 345.183 237.744 345.657 237.276 345.999C236.809 346.342 236.25 346.538 235.671 346.563C235.092 346.589 234.518 346.441 234.023 346.141C233.528 345.84 233.132 345.399 232.888 344.873C232.643 344.348 232.56 343.762 232.648 343.189C232.737 342.616 232.993 342.082 233.385 341.655C233.777 341.228 234.287 340.927 234.85 340.79C235.223 340.697 235.612 340.679 235.992 340.738C236.373 340.796 236.738 340.929 237.067 341.128C237.396 341.328 237.682 341.591 237.909 341.902C238.136 342.213 238.3 342.565 238.39 342.94Z" fill="white"/>
<path d="M226.88 345.529C226.974 346.102 226.895 346.688 226.655 347.216C226.415 347.744 226.023 348.188 225.531 348.493C225.038 348.798 224.465 348.95 223.886 348.93C223.307 348.91 222.747 348.718 222.276 348.379C221.806 348.041 221.446 347.57 221.244 347.027C221.041 346.484 221.004 345.893 221.137 345.329C221.27 344.764 221.567 344.252 221.992 343.857C222.416 343.462 222.948 343.202 223.52 343.109C223.9 343.047 224.288 343.059 224.663 343.147C225.038 343.235 225.391 343.396 225.703 343.621C226.016 343.846 226.28 344.13 226.482 344.458C226.684 344.785 226.819 345.149 226.88 345.529Z" fill="white"/>
<path d="M215.05 347.21C215.097 347.788 214.973 348.367 214.691 348.873C214.41 349.38 213.984 349.792 213.469 350.057C212.954 350.321 212.371 350.428 211.795 350.361C211.22 350.295 210.677 350.06 210.235 349.685C209.793 349.31 209.472 348.813 209.312 348.256C209.153 347.698 209.163 347.106 209.34 346.555C209.517 346.003 209.854 345.516 210.308 345.156C210.762 344.795 211.312 344.578 211.89 344.53C212.664 344.467 213.432 344.713 214.025 345.216C214.617 345.719 214.986 346.436 215.05 347.21Z" fill="white"/>
<path d="M202.93 347.94C202.93 348.519 202.758 349.086 202.436 349.568C202.114 350.049 201.656 350.425 201.121 350.647C200.586 350.868 199.996 350.926 199.428 350.813C198.86 350.7 198.338 350.421 197.928 350.012C197.518 349.602 197.239 349.08 197.126 348.511C197.013 347.943 197.071 347.354 197.293 346.818C197.515 346.283 197.89 345.825 198.372 345.504C198.854 345.182 199.42 345.01 200 345.01C200.777 345.01 201.522 345.318 202.072 345.868C202.621 346.417 202.93 347.163 202.93 347.94Z" fill="white"/>
<path d="M190.78 347.67C190.733 348.247 190.515 348.798 190.155 349.252C189.795 349.706 189.308 350.043 188.756 350.22C188.204 350.397 187.612 350.406 187.055 350.247C186.498 350.088 186 349.767 185.626 349.325C185.251 348.883 185.015 348.34 184.949 347.764C184.883 347.189 184.989 346.606 185.254 346.091C185.519 345.575 185.931 345.15 186.437 344.869C186.944 344.587 187.523 344.462 188.1 344.51C188.484 344.54 188.858 344.646 189.201 344.821C189.544 344.997 189.849 345.238 190.098 345.532C190.347 345.826 190.536 346.166 190.653 346.533C190.77 346.9 190.813 347.286 190.78 347.67Z" fill="white"/>
<path d="M178.89 346.47C178.798 347.042 178.537 347.574 178.142 347.998C177.747 348.422 177.235 348.72 176.671 348.853C176.107 348.986 175.516 348.949 174.973 348.746C174.43 348.543 173.959 348.184 173.62 347.714C173.282 347.243 173.09 346.683 173.07 346.104C173.049 345.524 173.201 344.952 173.506 344.459C173.812 343.966 174.256 343.575 174.784 343.335C175.311 343.095 175.898 343.016 176.47 343.11C176.85 343.17 177.215 343.306 177.542 343.508C177.87 343.71 178.154 343.974 178.379 344.286C178.604 344.599 178.765 344.952 178.852 345.327C178.94 345.702 178.953 346.09 178.89 346.47Z" fill="white"/>
<path d="M167.29 344.34C167.15 344.902 166.847 345.411 166.419 345.801C165.99 346.191 165.456 346.445 164.883 346.531C164.31 346.618 163.724 346.532 163.2 346.286C162.676 346.039 162.236 345.643 161.937 345.147C161.638 344.651 161.492 344.077 161.519 343.498C161.546 342.919 161.744 342.361 162.088 341.895C162.432 341.429 162.906 341.075 163.451 340.878C163.996 340.681 164.587 340.651 165.15 340.79C165.524 340.882 165.875 341.048 166.185 341.276C166.495 341.504 166.757 341.792 166.956 342.121C167.154 342.451 167.286 342.817 167.343 343.197C167.401 343.578 167.383 343.966 167.29 344.34Z" fill="white"/>
<path d="M156.02 341.32C155.848 341.876 155.514 342.368 155.061 342.733C154.608 343.098 154.057 343.32 153.477 343.371C152.898 343.422 152.316 343.299 151.807 343.018C151.297 342.737 150.883 342.311 150.617 341.794C150.35 341.277 150.244 340.692 150.311 340.114C150.378 339.536 150.616 338.992 150.994 338.549C151.372 338.107 151.873 337.787 152.433 337.631C152.993 337.474 153.588 337.488 154.14 337.67C154.869 337.911 155.475 338.428 155.826 339.111C156.178 339.793 156.247 340.587 156.02 341.32Z" fill="white"/>
<path d="M145.14 337.45C144.914 337.984 144.534 338.438 144.05 338.756C143.565 339.074 142.997 339.241 142.417 339.236C141.837 339.231 141.272 339.054 140.793 338.728C140.314 338.401 139.943 337.94 139.726 337.403C139.509 336.865 139.456 336.275 139.574 335.708C139.693 335.14 139.977 334.621 140.39 334.215C140.804 333.809 141.329 333.535 141.898 333.427C142.468 333.319 143.057 333.383 143.59 333.61C143.945 333.759 144.266 333.978 144.536 334.252C144.806 334.526 145.02 334.851 145.164 335.208C145.308 335.565 145.38 335.946 145.376 336.331C145.372 336.716 145.292 337.096 145.14 337.45Z" fill="white"/>
<path d="M134.61 332.77C134.336 333.278 133.919 333.694 133.411 333.965C132.902 334.237 132.325 334.353 131.751 334.298C131.177 334.243 130.632 334.02 130.184 333.656C129.736 333.293 129.405 332.806 129.233 332.255C129.061 331.705 129.056 331.116 129.217 330.562C129.378 330.009 129.699 329.515 130.14 329.143C130.58 328.771 131.121 328.537 131.694 328.471C132.266 328.404 132.846 328.509 133.36 328.77C133.708 328.947 134.017 329.192 134.269 329.491C134.52 329.789 134.71 330.135 134.827 330.507C134.943 330.88 134.984 331.272 134.947 331.661C134.909 332.049 134.795 332.427 134.61 332.77Z" fill="white"/>
<path d="M124.56 327.32C124.258 327.817 123.815 328.213 123.287 328.457C122.759 328.701 122.171 328.783 121.596 328.692C121.022 328.6 120.488 328.34 120.062 327.944C119.636 327.548 119.337 327.035 119.204 326.468C119.071 325.902 119.11 325.309 119.315 324.765C119.52 324.221 119.882 323.75 120.356 323.412C120.829 323.075 121.393 322.886 121.974 322.869C122.555 322.853 123.128 323.01 123.62 323.32C124.272 323.729 124.737 324.378 124.913 325.127C125.089 325.876 124.962 326.664 124.56 327.32Z" fill="white"/>
<path d="M114.99 321.131C114.647 321.597 114.173 321.952 113.629 322.149C113.084 322.347 112.493 322.378 111.931 322.24C111.368 322.102 110.859 321.8 110.468 321.373C110.077 320.946 109.822 320.412 109.734 319.84C109.646 319.267 109.729 318.682 109.974 318.157C110.219 317.632 110.614 317.191 111.109 316.89C111.604 316.59 112.177 316.443 112.756 316.468C113.334 316.493 113.893 316.688 114.36 317.03C114.672 317.257 114.936 317.544 115.137 317.873C115.338 318.202 115.471 318.568 115.53 318.949C115.588 319.33 115.571 319.719 115.478 320.094C115.385 320.468 115.22 320.821 114.99 321.131Z" fill="white"/>
<path d="M105.95 314.24C105.573 314.679 105.074 314.996 104.516 315.152C103.958 315.307 103.367 315.294 102.817 315.114C102.266 314.934 101.782 314.594 101.424 314.139C101.067 313.684 100.852 313.132 100.808 312.555C100.763 311.978 100.89 311.4 101.174 310.896C101.457 310.391 101.884 309.981 102.4 309.718C102.916 309.456 103.498 309.352 104.073 309.42C104.648 309.488 105.19 309.724 105.63 310.1C106.221 310.607 106.586 311.328 106.646 312.104C106.706 312.88 106.456 313.648 105.95 314.24Z" fill="white"/>
<path d="M95.39 307.54C97.0082 307.54 98.32 306.228 98.32 304.61C98.32 302.991 97.0082 301.68 95.39 301.68C93.7718 301.68 92.46 302.991 92.46 304.61C92.46 306.228 93.7718 307.54 95.39 307.54Z" fill="white"/>
<path d="M89.5798 298.5C89.1397 298.877 88.5976 299.115 88.0222 299.184C87.4467 299.253 86.8637 299.15 86.3469 298.887C85.8301 298.625 85.403 298.215 85.1191 297.71C84.8353 297.204 84.7076 296.626 84.7524 296.048C84.7972 295.471 85.0123 294.919 85.3706 294.463C85.7289 294.008 86.2141 293.669 86.7651 293.489C87.3161 293.309 87.9081 293.297 88.466 293.454C89.024 293.611 89.5231 293.929 89.8999 294.37C90.4049 294.96 90.6549 295.727 90.5949 296.501C90.5349 297.276 90.1697 297.994 89.5798 298.5Z" fill="white"/>
<path d="M82.3401 289.74C81.8727 290.082 81.3146 290.278 80.7359 290.303C80.1572 290.327 79.584 290.18 79.0889 289.88C78.5938 289.579 78.1989 289.138 77.9542 288.614C77.7094 288.089 77.6257 287.503 77.7137 286.93C77.8017 286.358 78.0572 285.824 78.4483 285.397C78.8394 284.97 79.3484 284.668 79.9109 284.53C80.4735 284.392 81.0642 284.423 81.6087 284.621C82.1532 284.818 82.6271 285.173 82.9703 285.64C83.4286 286.267 83.6196 287.051 83.5015 287.82C83.3835 288.588 82.9659 289.278 82.3401 289.74Z" fill="white"/>
<path d="M75.77 280.42C75.2774 280.729 74.7042 280.884 74.123 280.866C73.5419 280.848 72.9791 280.658 72.5066 280.319C72.034 279.98 71.6729 279.509 71.4692 278.964C71.2656 278.419 71.2287 277.826 71.363 277.261C71.4974 276.695 71.7971 276.182 72.2239 275.787C72.6506 275.392 73.1851 275.133 73.7595 275.043C74.3339 274.953 74.9222 275.036 75.4494 275.281C75.9766 275.526 76.419 275.923 76.7202 276.42C77.1212 277.078 77.2463 277.867 77.0683 278.616C76.8904 279.365 76.4237 280.013 75.77 280.42Z" fill="white"/>
<path d="M69.9199 270.59C69.4074 270.866 68.8243 270.982 68.2454 270.925C67.6664 270.868 67.1177 270.639 66.6689 270.269C66.2202 269.899 65.8917 269.403 65.7256 268.846C65.5594 268.288 65.5629 267.694 65.7358 267.138C65.9087 266.583 66.2431 266.091 66.6963 265.727C67.1495 265.362 67.7011 265.14 68.2808 265.09C68.8604 265.04 69.4417 265.163 69.9509 265.445C70.4601 265.726 70.8741 266.153 71.1399 266.67C71.4881 267.354 71.5553 268.146 71.3274 268.879C71.0995 269.611 70.5944 270.225 69.9199 270.59Z" fill="white"/>
<path d="M64.83 260.29C64.2963 260.515 63.7082 260.576 63.1398 260.466C62.5714 260.357 62.0483 260.081 61.6363 259.674C61.2244 259.268 60.942 258.748 60.8251 258.181C60.7081 257.614 60.7617 257.025 60.9791 256.489C61.1965 255.952 61.5679 255.492 62.0465 255.167C62.5251 254.841 63.0895 254.664 63.6683 254.659C64.2472 254.654 64.8146 254.82 65.2989 255.137C65.7833 255.454 66.163 255.908 66.39 256.44C66.5414 256.795 66.6212 257.177 66.6246 257.563C66.6281 257.949 66.5552 258.332 66.4103 258.69C66.2653 259.047 66.0511 259.373 65.7799 259.648C65.5087 259.922 65.1858 260.141 64.83 260.29Z" fill="white"/>
<path d="M60.53 249.54C59.9802 249.724 59.3881 249.741 58.8286 249.589C58.2691 249.436 57.7673 249.121 57.3869 248.684C57.0066 248.246 56.7649 247.705 56.6921 247.13C56.6193 246.554 56.7189 245.97 56.9782 245.452C57.2376 244.933 57.645 244.503 58.1489 244.216C58.6528 243.929 59.2306 243.798 59.8091 243.84C60.3875 243.881 60.9405 244.093 61.3982 244.45C61.8559 244.806 62.1976 245.29 62.3801 245.84C62.6213 246.576 62.5624 247.378 62.216 248.071C61.8696 248.763 61.2636 249.291 60.53 249.54Z" fill="white"/>
<path d="M57.0597 238.4C56.4971 238.537 55.9066 238.504 55.3625 238.306C54.8184 238.108 54.3453 237.753 54.0028 237.286C53.6604 236.819 53.4639 236.261 53.4384 235.682C53.4129 235.104 53.5593 234.531 53.8593 234.035C54.1593 233.54 54.5994 233.145 55.1239 232.899C55.6485 232.654 56.2338 232.569 56.8063 232.656C57.3788 232.744 57.9127 232.998 58.3405 233.389C58.7683 233.779 59.0708 234.287 59.2099 234.85C59.3038 235.224 59.3225 235.613 59.2651 235.995C59.2076 236.376 59.0753 236.743 58.8754 237.073C58.6755 237.403 58.4119 237.69 58.1003 237.918C57.7886 238.146 57.435 238.309 57.0597 238.4Z" fill="white"/>
<path d="M54.4703 226.89C53.8982 226.983 53.3111 226.905 52.7835 226.665C52.256 226.425 51.8115 226.033 51.5064 225.54C51.2013 225.048 51.0494 224.475 51.0697 223.896C51.0899 223.317 51.2817 222.756 51.6204 222.286C51.9592 221.816 52.4299 221.456 52.973 221.253C53.516 221.051 54.1068 221.014 54.671 221.147C55.2351 221.28 55.7472 221.577 56.1422 222.002C56.5372 222.426 56.7976 222.958 56.8902 223.53C56.953 223.91 56.9401 224.298 56.8524 224.673C56.7646 225.047 56.6036 225.401 56.3787 225.713C56.1539 226.025 55.8696 226.29 55.5421 226.492C55.2145 226.694 54.8503 226.829 54.4703 226.89Z" fill="white"/>
<path d="M52.7901 215.06C52.2126 215.108 51.6339 214.983 51.1273 214.701C50.6207 214.42 50.2091 213.995 49.9442 213.479C49.6793 212.964 49.5731 212.381 49.6392 211.806C49.7054 211.23 49.9407 210.687 50.3155 210.245C50.6903 209.803 51.1877 209.482 51.745 209.323C52.3022 209.164 52.8941 209.173 53.4459 209.35C53.9976 209.527 54.4845 209.864 54.8448 210.318C55.2051 210.772 55.4229 211.322 55.4703 211.9C55.5339 212.674 55.2871 213.442 54.7845 214.035C54.2819 214.628 53.5645 214.996 52.7901 215.06Z" fill="white"/>
<path d="M52.0597 202.93C51.4802 202.93 50.9139 202.758 50.432 202.437C49.9502 202.115 49.5747 201.657 49.3529 201.122C49.1312 200.586 49.0731 199.997 49.1862 199.429C49.2992 198.86 49.5782 198.338 49.9879 197.928C50.3977 197.519 50.9198 197.24 51.4882 197.127C52.0565 197.014 52.6457 197.072 53.1811 197.293C53.7164 197.515 54.174 197.891 54.496 198.373C54.8179 198.854 54.9899 199.421 54.9899 200C54.9899 200.777 54.6812 201.523 54.1317 202.072C53.5823 202.622 52.8368 202.93 52.0597 202.93Z" fill="white"/>
<path d="M52.3201 190.79C51.7419 190.745 51.1904 190.529 50.7351 190.17C50.2798 189.81 49.9414 189.324 49.7627 188.772C49.584 188.22 49.573 187.628 49.7312 187.07C49.8894 186.512 50.2097 186.014 50.6514 185.638C51.0931 185.262 51.6366 185.026 52.2127 184.959C52.7888 184.892 53.3717 184.998 53.8877 185.263C54.4037 185.527 54.8296 185.939 55.1113 186.446C55.393 186.953 55.5179 187.532 55.4702 188.11C55.4065 188.883 55.0391 189.599 54.4487 190.101C53.8583 190.603 53.0929 190.851 52.3201 190.79Z" fill="white"/>
<path d="M53.53 178.9C52.9578 178.808 52.4259 178.547 52.0017 178.152C51.5774 177.757 51.2799 177.245 51.1467 176.681C51.0135 176.117 51.0508 175.526 51.2536 174.983C51.4564 174.44 51.8157 173.969 52.2861 173.631C52.7565 173.292 53.3166 173.1 53.896 173.08C54.4753 173.06 55.0476 173.212 55.5405 173.517C56.0334 173.822 56.4248 174.266 56.665 174.794C56.9052 175.321 56.9835 175.908 56.8901 176.48C56.7649 177.247 56.3409 177.932 55.7109 178.386C55.0809 178.839 54.2964 179.025 53.53 178.9Z" fill="white"/>
<path d="M55.6601 167.3C55.0979 167.161 54.5895 166.858 54.1991 166.43C53.8088 166.003 53.5541 165.469 53.467 164.896C53.3798 164.324 53.4642 163.738 53.7096 163.214C53.955 162.689 54.3503 162.249 54.8456 161.949C55.341 161.649 55.9141 161.503 56.4926 161.528C57.0711 161.554 57.6291 161.75 58.0961 162.093C58.5631 162.435 58.9181 162.908 59.1164 163.452C59.3146 163.996 59.3474 164.587 59.2101 165.15C59.1188 165.524 58.9543 165.877 58.7262 166.188C58.4982 166.499 58.2111 166.762 57.8813 166.962C57.5515 167.161 57.1855 167.294 56.8044 167.352C56.4232 167.41 56.0344 167.392 55.6601 167.3Z" fill="white"/>
<path d="M58.6799 156.02C58.1295 155.837 57.6454 155.496 57.2893 155.038C56.9332 154.58 56.721 154.027 56.6794 153.449C56.6378 152.87 56.7687 152.293 57.0556 151.789C57.3426 151.285 57.7728 150.877 58.2915 150.618C58.8102 150.359 59.3941 150.259 59.9695 150.332C60.5448 150.405 61.0856 150.646 61.5234 151.027C61.9612 151.407 62.2762 151.909 62.4287 152.468C62.5812 153.028 62.5642 153.62 62.3799 154.17C62.1334 154.905 61.6056 155.513 60.9121 155.859C60.2186 156.206 59.4159 156.264 58.6799 156.02Z" fill="white"/>
<path d="M62.5501 145.12C62.0164 144.895 61.5615 144.516 61.243 144.032C60.9245 143.548 60.7568 142.98 60.7608 142.401C60.7648 141.821 60.9405 141.256 61.2657 140.777C61.5909 140.297 62.0511 139.925 62.588 139.707C63.1248 139.489 63.714 139.435 64.2816 139.551C64.8491 139.668 65.3692 139.951 65.7762 140.363C66.1832 140.776 66.4587 141.3 66.5679 141.869C66.6772 142.438 66.6154 143.026 66.3902 143.56C66.2406 143.915 66.0226 144.236 65.7486 144.507C65.4746 144.777 65.1501 144.991 64.7935 145.136C64.4369 145.281 64.0551 145.354 63.6702 145.351C63.2853 145.348 62.9047 145.27 62.5501 145.12Z" fill="white"/>
<path d="M67.2301 134.67C66.7157 134.403 66.2919 133.99 66.0126 133.482C65.7332 132.974 65.6109 132.395 65.6608 131.818C65.7106 131.24 65.9306 130.691 66.2929 130.238C66.6551 129.786 67.1434 129.451 67.6959 129.276C68.2485 129.101 68.8403 129.094 69.3969 129.256C69.9534 129.417 70.4494 129.74 70.8224 130.184C71.1954 130.628 71.4284 131.172 71.4921 131.748C71.5557 132.324 71.4472 132.906 71.1801 133.42C70.8219 134.11 70.2045 134.629 69.4638 134.863C68.723 135.098 67.9197 135.028 67.2301 134.67Z" fill="white"/>
<path d="M72.6802 124.57C72.1828 124.269 71.7862 123.827 71.541 123.3C71.2958 122.772 71.2128 122.184 71.303 121.61C71.3931 121.035 71.6522 120.501 72.0471 120.074C72.442 119.647 72.955 119.347 73.5207 119.213C74.0864 119.079 74.6793 119.116 75.2239 119.319C75.7685 119.523 76.2401 119.884 76.5788 120.357C76.9176 120.829 77.1082 121.392 77.1262 121.973C77.1442 122.554 76.989 123.128 76.6802 123.62C76.2716 124.272 75.6231 124.737 74.8747 124.915C74.1264 125.092 73.3381 124.969 72.6802 124.57Z" fill="white"/>
<path d="M78.8701 115C78.4034 114.656 78.0491 114.183 77.8515 113.638C77.654 113.094 77.6221 112.503 77.7602 111.94C77.8984 111.378 78.2002 110.869 78.6274 110.478C79.0547 110.087 79.5884 109.831 80.1609 109.743C80.7334 109.655 81.319 109.739 81.844 109.983C82.3689 110.228 82.8097 110.623 83.1103 111.118C83.411 111.613 83.5581 112.186 83.5332 112.765C83.5082 113.344 83.3123 113.902 82.9702 114.37C82.5073 114.993 81.8171 115.409 81.0495 115.527C80.282 115.645 79.4988 115.455 78.8701 115Z" fill="white"/>
<path d="M85.7601 105.95C85.322 105.571 85.0057 105.071 84.8514 104.513C84.6972 103.955 84.7119 103.364 84.8934 102.814C85.075 102.264 85.4152 101.781 85.8714 101.424C86.3277 101.067 86.8795 100.854 87.4569 100.811C88.0343 100.768 88.6116 100.896 89.1158 101.181C89.6201 101.466 90.0285 101.893 90.2899 102.41C90.5513 102.927 90.654 103.509 90.5846 104.084C90.5152 104.659 90.2769 105.2 89.9 105.64C89.3915 106.229 88.6702 106.592 87.8942 106.65C87.1181 106.709 86.3507 106.457 85.7601 105.95Z" fill="white"/>
<path d="M93.3199 97.4705C92.9096 97.0609 92.6301 96.5388 92.5167 95.9703C92.4032 95.4018 92.4608 94.8124 92.6824 94.2767C92.904 93.741 93.2796 93.2832 93.7615 92.961C94.2435 92.6388 94.8102 92.4668 95.39 92.4668C95.9697 92.4668 96.5364 92.6388 97.0184 92.961C97.5003 93.2832 97.8759 93.741 98.0975 94.2767C98.3191 94.8124 98.3767 95.4018 98.2632 95.9703C98.1498 96.5388 97.8703 97.0609 97.46 97.4705C96.9107 98.0188 96.1661 98.3268 95.39 98.3268C94.6138 98.3268 93.8692 98.0188 93.3199 97.4705Z" fill="white"/>
<path d="M101.5 89.5901C101.122 89.1509 100.882 88.6094 100.812 88.034C100.741 87.4587 100.843 86.8754 101.104 86.358C101.365 85.8405 101.774 85.4122 102.279 85.1271C102.783 84.8419 103.361 84.7129 103.939 84.7563C104.517 84.7997 105.069 85.0135 105.526 85.3708C105.982 85.728 106.323 86.2126 106.504 86.7632C106.685 87.3139 106.698 87.9058 106.543 88.4642C106.387 89.0226 106.069 89.5223 105.63 89.9001C105.034 90.3891 104.272 90.6298 103.503 90.5721C102.734 90.5144 102.017 90.1627 101.5 89.5901Z" fill="white"/>
<path d="M110.27 82.3401C109.926 81.8729 109.729 81.3144 109.704 80.7351C109.678 80.1559 109.824 79.582 110.125 79.0862C110.426 78.5903 110.866 78.1947 111.392 77.9496C111.917 77.7044 112.504 77.6207 113.077 77.709C113.65 77.7972 114.184 78.0536 114.611 78.4455C115.038 78.8374 115.34 79.3472 115.477 79.9106C115.615 80.4739 115.582 81.0653 115.383 81.61C115.184 82.1546 114.828 82.6279 114.36 82.9701C114.05 83.1981 113.699 83.3627 113.325 83.4544C112.952 83.5462 112.564 83.5633 112.184 83.5047C111.804 83.4462 111.439 83.3132 111.111 83.1133C110.782 82.9135 110.496 82.6507 110.27 82.3401Z" fill="white"/>
<path d="M119.58 75.7797C119.27 75.2879 119.113 74.7148 119.129 74.1335C119.146 73.5522 119.335 72.9888 119.672 72.5153C120.01 72.0417 120.481 71.6793 121.025 71.4743C121.569 71.2692 122.162 71.2308 122.728 71.3638C123.294 71.4969 123.808 71.7954 124.204 72.2214C124.6 72.6474 124.86 73.1816 124.952 73.7559C125.043 74.3303 124.961 74.9189 124.717 75.4467C124.473 75.9745 124.077 76.4176 123.58 76.7197C122.923 77.1164 122.136 77.2402 121.389 77.0645C120.641 76.8889 119.992 76.4277 119.58 75.7797Z" fill="white"/>
<path d="M129.41 69.93C129.143 69.4157 129.034 68.8337 129.098 68.2577C129.161 67.6817 129.394 67.1374 129.767 66.6939C130.14 66.2503 130.636 65.9272 131.193 65.7656C131.75 65.604 132.341 65.6111 132.894 65.786C133.446 65.9608 133.935 66.2956 134.297 66.748C134.659 67.2004 134.879 67.75 134.929 68.3273C134.979 68.9047 134.856 69.4839 134.577 69.9917C134.298 70.4995 133.874 70.913 133.36 71.18C132.67 71.5352 131.867 71.6031 131.127 71.369C130.387 71.1348 129.77 70.6175 129.41 69.93Z" fill="white"/>
<path d="M139.72 64.8297C139.495 64.2958 139.433 63.7072 139.542 63.1382C139.652 62.5691 139.927 62.0453 140.334 61.6328C140.741 61.2204 141.261 60.9378 141.829 60.821C142.396 60.7041 142.986 60.7581 143.523 60.9762C144.059 61.1943 144.52 61.5667 144.845 62.0462C145.17 62.5258 145.346 63.091 145.35 63.6704C145.354 64.2498 145.186 64.8174 144.867 65.3014C144.549 65.7854 144.094 66.1642 143.56 66.3897C143.206 66.5395 142.825 66.618 142.44 66.6207C142.055 66.6234 141.674 66.5502 141.317 66.4053C140.96 66.2604 140.636 66.0467 140.362 65.7764C140.088 65.5061 139.87 65.1843 139.72 64.8297Z" fill="white"/>
<path d="M150.46 60.5399C150.276 59.99 150.259 59.3979 150.411 58.8384C150.564 58.2788 150.879 57.7772 151.316 57.3968C151.754 57.0165 152.295 56.7746 152.87 56.7019C153.446 56.6291 154.03 56.7287 154.548 56.988C155.067 57.2474 155.497 57.6548 155.784 58.1587C156.071 58.6627 156.202 59.2405 156.16 59.8189C156.119 60.3973 155.907 60.9504 155.551 61.4081C155.194 61.8657 154.71 62.2074 154.16 62.3899C153.424 62.6311 152.622 62.5721 151.929 62.2257C151.237 61.8793 150.709 61.2735 150.46 60.5399Z" fill="white"/>
<path d="M161.6 57.0703C161.461 56.5079 161.492 55.9167 161.688 55.3718C161.885 54.8268 162.239 54.3523 162.705 54.0084C163.171 53.6645 163.729 53.4666 164.308 53.4397C164.887 53.4128 165.461 53.5581 165.957 53.8572C166.453 54.1564 166.85 54.5959 167.096 55.1203C167.342 55.6447 167.428 56.2303 167.341 56.8033C167.255 57.3762 167.001 57.9107 166.611 58.3391C166.221 58.7675 165.712 59.0707 165.15 59.2103C164.776 59.303 164.388 59.3212 164.007 59.2638C163.627 59.2065 163.261 59.0746 162.931 58.8759C162.602 58.6772 162.314 58.4154 162.086 58.1056C161.857 57.7958 161.692 57.444 161.6 57.0703Z" fill="white"/>
<path d="M173.14 54.4804C173.046 53.9083 173.125 53.3214 173.365 52.7938C173.605 52.2663 173.997 51.8218 174.49 51.5167C174.982 51.2117 175.555 51.0597 176.134 51.0799C176.713 51.1002 177.274 51.2918 177.744 51.6306C178.214 51.9694 178.574 52.4401 178.776 52.9831C178.979 53.5262 179.016 54.1171 178.883 54.6813C178.75 55.2455 178.453 55.7574 178.028 56.1524C177.604 56.5474 177.072 56.8078 176.5 56.9004C175.734 57.0245 174.949 56.8394 174.319 56.3856C173.689 55.9319 173.265 55.2467 173.14 54.4804Z" fill="white"/>
<path d="M184.94 52.8001C184.893 52.2225 185.017 51.6438 185.299 51.1372C185.58 50.6306 186.005 50.2188 186.521 49.9539C187.036 49.689 187.619 49.5829 188.194 49.649C188.77 49.7151 189.313 49.9505 189.755 50.3253C190.197 50.7002 190.518 51.1976 190.677 51.7548C190.837 52.3121 190.827 52.9039 190.65 53.4557C190.473 54.0075 190.136 54.4943 189.682 54.8546C189.228 55.215 188.678 55.4326 188.1 55.4801C187.326 55.5437 186.558 55.297 185.965 54.7945C185.372 54.2919 185.004 53.5745 184.94 52.8001Z" fill="white"/>
<path d="M197.07 52.0697C197.07 51.4902 197.242 50.9236 197.564 50.4418C197.886 49.96 198.343 49.5845 198.879 49.3627C199.414 49.1409 200.003 49.0829 200.572 49.1959C201.14 49.309 201.662 49.5881 202.072 49.9978C202.482 50.4076 202.76 50.9296 202.874 51.498C202.987 52.0664 202.929 52.6555 202.707 53.1909C202.485 53.7263 202.11 54.1839 201.628 54.5058C201.146 54.8278 200.579 54.9997 200 54.9997C199.223 54.9997 198.477 54.6909 197.928 54.1414C197.378 53.592 197.07 52.8467 197.07 52.0697Z" fill="white"/>
<path d="M209.21 52.32C209.257 51.7425 209.475 51.1919 209.835 50.7381C210.196 50.2842 210.682 49.9474 211.234 49.7702C211.786 49.593 212.378 49.5834 212.935 49.7427C213.492 49.9019 213.99 50.2227 214.365 50.6647C214.74 51.1067 214.975 51.6499 215.041 52.2256C215.107 52.8014 215.001 53.3838 214.736 53.8992C214.471 54.4146 214.059 54.8399 213.553 55.1213C213.046 55.4027 212.468 55.5275 211.89 55.48C211.116 55.4163 210.398 55.0477 209.896 54.4551C209.393 53.8625 209.146 53.0945 209.21 52.32Z" fill="white"/>
<path d="M221.14 53.53C221.234 52.9586 221.496 52.4281 221.892 52.0053C222.288 51.5826 222.8 51.2866 223.364 51.1549C223.928 51.0232 224.519 51.0616 225.061 51.2652C225.603 51.4689 226.073 51.8286 226.411 52.2991C226.748 52.7695 226.939 53.3295 226.959 53.9084C226.979 54.4872 226.826 55.0589 226.521 55.5513C226.216 56.0436 225.772 56.4345 225.245 56.6746C224.718 56.9146 224.131 56.9931 223.56 56.9C222.793 56.7725 222.108 56.3463 221.654 55.7147C221.2 55.0831 221.016 54.2976 221.14 53.53Z" fill="white"/>
<path d="M232.7 55.6696C232.837 55.1065 233.138 54.5967 233.565 54.2048C233.993 53.8129 234.526 53.5565 235.099 53.468C235.672 53.3794 236.258 53.4628 236.784 53.7075C237.309 53.9522 237.75 54.3472 238.051 54.8426C238.352 55.338 238.499 55.9116 238.474 56.4906C238.449 57.0697 238.252 57.6283 237.91 58.0958C237.567 58.5633 237.094 58.9186 236.549 59.1168C236.004 59.3151 235.413 59.3474 234.85 59.2096C234.097 59.0225 233.448 58.5455 233.046 57.8824C232.643 57.2193 232.519 56.4239 232.7 55.6696Z" fill="white"/>
<path d="M243.98 58.67C244.164 58.1206 244.507 57.6382 244.965 57.2836C245.423 56.9291 245.976 56.7183 246.554 56.678C247.132 56.6377 247.709 56.7697 248.212 57.0572C248.715 57.3447 249.122 57.7749 249.38 58.2934C249.639 58.8119 249.738 59.3954 249.665 59.9702C249.592 60.5449 249.35 61.0851 248.97 61.5225C248.59 61.9599 248.089 62.2748 247.53 62.4274C246.971 62.58 246.379 62.5636 245.83 62.38C245.465 62.2581 245.127 62.0653 244.836 61.8128C244.546 61.5603 244.308 61.253 244.136 60.9084C243.964 60.5639 243.862 60.1888 243.835 59.8048C243.808 59.4207 243.858 59.0351 243.98 58.67Z" fill="white"/>
<path d="M254.88 62.5503C255.105 62.0166 255.484 61.5617 255.968 61.2432C256.452 60.9247 257.02 60.7568 257.599 60.7608C258.179 60.7648 258.744 60.9405 259.223 61.2658C259.703 61.591 260.075 62.0511 260.294 62.588C260.512 63.1248 260.566 63.7142 260.449 64.2817C260.332 64.8493 260.049 65.3693 259.637 65.7763C259.224 66.1833 258.7 66.4588 258.131 66.5681C257.562 66.6774 256.974 66.6155 256.44 66.3903C256.085 66.2406 255.764 66.0227 255.493 65.7487C255.223 65.4747 255.009 65.1501 254.864 64.7935C254.719 64.4369 254.646 64.0553 254.649 63.6704C254.652 63.2855 254.73 62.9049 254.88 62.5503Z" fill="white"/>
<path d="M265.38 67.2303C265.653 66.7226 266.071 66.3069 266.579 66.0351C267.088 65.7634 267.665 65.6478 268.239 65.7028C268.813 65.7578 269.358 65.981 269.806 66.3444C270.254 66.7077 270.585 67.1951 270.757 67.7455C270.929 68.2959 270.934 68.8848 270.773 69.4385C270.612 69.9921 270.291 70.486 269.85 70.858C269.41 71.2301 268.869 71.4639 268.296 71.5301C267.723 71.5963 267.144 71.492 266.63 71.2303C266.282 71.0532 265.973 70.8082 265.721 70.5099C265.469 70.2117 265.28 69.866 265.163 69.4934C265.047 69.1208 265.006 68.7287 265.043 68.34C265.08 67.9514 265.195 67.5741 265.38 67.2303Z" fill="white"/>
<path d="M275.43 72.6702C275.731 72.1729 276.173 71.7764 276.701 71.5311C277.228 71.2859 277.816 71.2031 278.39 71.2932C278.965 71.3833 279.499 71.6423 279.926 72.0372C280.353 72.4321 280.652 72.945 280.787 73.5108C280.921 74.0765 280.884 74.6693 280.681 75.2139C280.477 75.7586 280.116 76.2303 279.644 76.569C279.171 76.9078 278.608 77.0984 278.027 77.1164C277.446 77.1344 276.872 76.9791 276.38 76.6702C275.73 76.2599 275.267 75.6115 275.089 74.8639C274.912 74.1163 275.034 73.3289 275.43 72.6702Z" fill="white"/>
<path d="M285 78.8796C285.342 78.4115 285.816 78.0554 286.36 77.8565C286.905 77.6576 287.496 77.6248 288.06 77.7621C288.623 77.8995 289.133 78.201 289.525 78.6283C289.917 79.0556 290.173 79.5896 290.261 80.1627C290.349 80.7357 290.266 81.3221 290.021 81.8475C289.776 82.373 289.38 82.8139 288.884 83.1144C288.388 83.415 287.814 83.5616 287.235 83.5358C286.656 83.51 286.097 83.313 285.63 82.9695C285.005 82.5101 284.588 81.8215 284.47 81.0548C284.352 80.2881 284.542 79.5058 285 78.8796Z" fill="white"/>
<path d="M294.05 85.7701C294.428 85.3306 294.927 85.0129 295.486 84.8574C296.044 84.7019 296.636 84.7155 297.187 84.8965C297.737 85.0775 298.222 85.4177 298.579 85.8741C298.936 86.3306 299.15 86.8827 299.194 87.4607C299.237 88.0387 299.108 88.6166 298.823 89.1212C298.538 89.6259 298.109 90.0346 297.592 90.2958C297.075 90.5569 296.491 90.6587 295.916 90.5883C295.341 90.5179 294.799 90.2784 294.36 89.9001C293.771 89.3934 293.408 88.6738 293.35 87.8994C293.292 87.1249 293.544 86.3591 294.05 85.7701Z" fill="white"/>
<path d="M302.53 93.3297C302.939 92.9194 303.462 92.6399 304.03 92.5264C304.599 92.4129 305.188 92.4706 305.724 92.6922C306.259 92.9139 306.717 93.2894 307.039 93.7713C307.361 94.2533 307.533 94.82 307.533 95.3997C307.533 95.9794 307.361 96.5461 307.039 97.0281C306.717 97.51 306.259 97.8855 305.724 98.1072C305.188 98.3288 304.599 98.3865 304.03 98.2731C303.462 98.1596 302.939 97.88 302.53 97.4697C302.257 97.1984 302.041 96.8759 301.893 96.5206C301.745 96.1654 301.669 95.7844 301.669 95.3997C301.669 95.015 301.745 94.6341 301.893 94.2789C302.041 93.9236 302.257 93.601 302.53 93.3297Z" fill="white"/>
<path d="M310.41 101.5C310.847 101.123 311.386 100.883 311.959 100.811C312.531 100.739 313.113 100.838 313.63 101.095C314.147 101.352 314.576 101.756 314.864 102.256C315.152 102.757 315.286 103.331 315.249 103.907C315.211 104.484 315.005 105.036 314.655 105.495C314.304 105.954 313.826 106.299 313.281 106.488C312.735 106.676 312.145 106.699 311.587 106.554C311.028 106.408 310.525 106.101 310.14 105.67C309.882 105.38 309.684 105.041 309.558 104.673C309.432 104.306 309.38 103.917 309.405 103.529C309.43 103.141 309.532 102.762 309.704 102.414C309.877 102.066 310.117 101.755 310.41 101.5Z" fill="white"/>
<path d="M317.66 110.27C318.127 109.928 318.686 109.732 319.265 109.707C319.843 109.682 320.416 109.829 320.911 110.13C321.406 110.43 321.801 110.871 322.046 111.396C322.291 111.921 322.374 112.507 322.286 113.079C322.199 113.652 321.943 114.185 321.552 114.612C321.161 115.04 320.652 115.341 320.089 115.48C319.527 115.618 318.936 115.586 318.391 115.388C317.847 115.191 317.373 114.836 317.03 114.37C316.8 114.06 316.635 113.707 316.542 113.333C316.449 112.959 316.432 112.57 316.49 112.188C316.549 111.807 316.682 111.441 316.883 111.112C317.084 110.783 317.348 110.496 317.66 110.27Z" fill="white"/>
<path d="M324.22 119.59C324.712 119.279 325.285 119.122 325.866 119.139C326.448 119.155 327.011 119.344 327.484 119.682C327.958 120.02 328.32 120.49 328.525 121.035C328.731 121.579 328.769 122.172 328.636 122.738C328.503 123.304 328.204 123.818 327.778 124.214C327.352 124.61 326.818 124.87 326.244 124.961C325.669 125.053 325.081 124.971 324.553 124.727C324.025 124.483 323.582 124.087 323.28 123.59C322.881 122.933 322.755 122.146 322.931 121.397C323.107 120.649 323.57 120 324.22 119.59Z" fill="white"/>
<path d="M330.07 129.42C330.584 129.158 331.163 129.054 331.736 129.12C332.309 129.186 332.849 129.42 333.29 129.792C333.73 130.164 334.052 130.658 334.213 131.212C334.374 131.765 334.368 132.354 334.196 132.905C334.024 133.455 333.693 133.942 333.246 134.306C332.798 134.669 332.253 134.892 331.679 134.947C331.105 135.002 330.528 134.887 330.019 134.615C329.51 134.343 329.093 133.927 328.82 133.42C328.633 133.076 328.518 132.699 328.48 132.31C328.442 131.921 328.482 131.528 328.599 131.155C328.715 130.782 328.906 130.436 329.158 130.138C329.411 129.84 329.721 129.596 330.07 129.42Z" fill="white"/>
<path d="M335.14 139.72C335.674 139.494 336.263 139.433 336.832 139.542C337.401 139.651 337.924 139.927 338.337 140.334C338.749 140.741 339.032 141.261 339.149 141.828C339.266 142.396 339.212 142.985 338.994 143.522C338.775 144.059 338.403 144.519 337.923 144.844C337.444 145.169 336.879 145.345 336.299 145.349C335.72 145.353 335.152 145.185 334.668 144.867C334.184 144.548 333.806 144.093 333.58 143.56C333.28 142.843 333.276 142.037 333.568 141.318C333.861 140.599 334.426 140.024 335.14 139.72Z" fill="white"/>
<path d="M339.46 150.459C340.01 150.276 340.601 150.259 341.16 150.412C341.719 150.565 342.22 150.88 342.6 151.317C342.98 151.754 343.222 152.295 343.295 152.869C343.368 153.444 343.269 154.028 343.01 154.546C342.752 155.065 342.345 155.495 341.842 155.782C341.339 156.07 340.762 156.202 340.184 156.162C339.606 156.121 339.053 155.91 338.595 155.556C338.137 155.201 337.794 154.719 337.61 154.169C337.488 153.804 337.438 153.419 337.465 153.035C337.492 152.651 337.594 152.276 337.766 151.931C337.938 151.587 338.176 151.279 338.467 151.027C338.757 150.774 339.095 150.581 339.46 150.459Z" fill="white"/>
<path d="M342.93 161.61C343.493 161.47 344.085 161.5 344.63 161.697C345.176 161.894 345.651 162.248 345.995 162.715C346.339 163.182 346.537 163.74 346.563 164.319C346.59 164.899 346.444 165.473 346.144 165.969C345.844 166.466 345.403 166.862 344.878 167.107C344.352 167.353 343.766 167.437 343.193 167.35C342.62 167.262 342.085 167.006 341.657 166.614C341.23 166.223 340.928 165.713 340.79 165.15C340.606 164.397 340.728 163.601 341.129 162.938C341.53 162.274 342.178 161.797 342.93 161.61Z" fill="white"/>
<path d="M345.52 173.12C346.092 173.027 346.679 173.105 347.207 173.345C347.734 173.586 348.179 173.977 348.484 174.47C348.789 174.963 348.941 175.535 348.921 176.114C348.9 176.694 348.709 177.254 348.37 177.724C348.031 178.195 347.561 178.554 347.018 178.757C346.475 178.96 345.884 178.997 345.319 178.864C344.755 178.73 344.243 178.433 343.848 178.009C343.453 177.584 343.193 177.053 343.1 176.48C342.976 175.714 343.161 174.93 343.615 174.3C344.069 173.67 344.754 173.246 345.52 173.12Z" fill="white"/>
<path d="M347.2 184.95C347.778 184.903 348.356 185.028 348.863 185.309C349.37 185.59 349.782 186.016 350.046 186.531C350.311 187.047 350.417 187.629 350.351 188.205C350.285 188.78 350.05 189.324 349.675 189.766C349.3 190.208 348.803 190.528 348.245 190.688C347.688 190.847 347.096 190.837 346.545 190.66C345.993 190.483 345.506 190.146 345.146 189.692C344.785 189.238 344.568 188.688 344.52 188.11C344.456 187.336 344.703 186.568 345.206 185.975C345.708 185.383 346.426 185.014 347.2 184.95Z" fill="white"/>
<path d="M200 360.13C111.7 360.13 39.8701 288.3 39.8701 200C39.8701 111.7 111.7 39.8799 200 39.8799C288.3 39.8799 360.14 111.67 360.14 200C360.14 288.33 288.29 360.13 200 360.13ZM200 44.6999C114.36 44.6999 44.6902 114.37 44.6902 200C44.6902 285.63 114.36 355.31 200 355.31C285.64 355.31 355.3 285.64 355.3 200C355.3 114.36 285.63 44.6699 200 44.6699V44.6999Z" fill="white"/>
<path d="M200 340.67C122.42 340.67 59.2998 277.56 59.2998 199.97C59.2998 122.38 122.42 59.2695 200 59.2695C277.58 59.2695 340.7 122.39 340.7 199.97C340.7 277.55 277.58 340.67 200 340.67ZM200 64.0895C125.07 64.0895 64.1199 125.09 64.1199 199.97C64.1199 274.85 125.07 335.85 200 335.85C274.93 335.85 335.88 274.85 335.88 199.97C335.88 125.09 274.92 64.1196 200 64.1196V64.0895Z" fill="white"/>
<path d="M225.31 174.7L200 18.2197V200L225.31 174.7Z" fill="white"/>
<path d="M200 200V18.2197L174.69 174.7L200 200Z" fill="black"/>
<path d="M381.78 200L225.31 174.7L200 200H381.78Z" fill="black"/>
<path d="M200 200L225.31 225.31L381.78 200H200Z" fill="white"/>
<path d="M200 200L174.7 225.31H174.69L200 381.78V200Z" fill="white"/>
<path d="M200 381.78L225.31 225.31L200 200V381.78Z" fill="black"/>
<path d="M200 200H18.2202L174.69 225.31L200 200Z" fill="black"/>
<path d="M200 200L174.69 174.7L18.2202 200H200Z" fill="white"/>
<path d="M200 204.12L171.58 175.67L200 -0.0302734L228.41 175.67L200 204.12ZM177.8 173.67L200 195.87L222.19 173.67L200 36.4197L177.8 173.67Z" fill="white"/>
<path d="M224.3 228.42L195.88 200L224.3 171.59L400 200L224.3 228.42ZM204.14 200L226.34 222.2L363.59 200L226.34 177.81L204.14 200Z" fill="white"/>
<path d="M200 400L171.58 224.3L200 195.89L228.41 224.3L200 400ZM177.8 226.31L200 363.57L222.19 226.31L200 204.12L177.8 226.31Z" fill="white"/>
<path d="M175.7 228.42L0 200L175.7 171.59L204.14 200L175.7 228.42ZM36.4301 200L173.69 222.2L195.88 200L173.69 177.81L36.4301 200Z" fill="white"/>
<path d="M222.91 200L282.3 117.7L200 200H222.91Z" fill="white"/>
<path d="M200 200L282.3 117.7L200 177.09V200Z" fill="black"/>
<path d="M282.3 282.3L222.91 200H200L282.3 282.3Z" fill="black"/>
<path d="M200 200V222.91L282.3 282.3L200 200Z" fill="white"/>
<path d="M200 200H177.09L117.7 282.3L200 200Z" fill="white"/>
<path d="M117.7 282.3L200 222.91V200L117.7 282.3Z" fill="black"/>
<path d="M200 200L117.7 117.7L177.09 200H200Z" fill="black"/>
<path d="M200 200V177.09L117.7 117.7L200 200Z" fill="white"/>
<path d="M224.4 202.91H197.14V175.6L295.14 104.82L224.4 202.91ZM202.91 197.09H221.42L269.42 130.59L202.92 178.59L202.91 197.09Z" fill="white"/>
<path d="M295.14 295.18L197.14 224.4V197.1H224.45L295.14 295.18ZM202.87 221.43L269.37 269.43L221.37 202.92H202.86L202.87 221.43Z" fill="white"/>
<path d="M104.82 295.18L175.6 197.09H202.91V224.4L104.82 295.18ZM178.57 202.91L130.57 269.42L197.08 221.42V202.91H178.57Z" fill="white"/>
<path d="M175.6 202.91L104.82 104.82L202.91 175.6V202.91H175.6ZM130.6 130.59L178.6 197.1H197.14V178.58L130.6 130.59Z" fill="white"/>
<path d="M225.971 206.091C229.369 191.696 220.454 177.273 206.059 173.876C191.664 170.478 177.241 179.393 173.844 193.788C170.446 208.182 179.361 222.606 193.756 226.003C208.15 229.401 222.574 220.486 225.971 206.091Z" fill="black"/>
<path d="M200 229.67C194.132 229.67 188.396 227.93 183.516 224.67C178.637 221.41 174.834 216.776 172.589 211.354C170.343 205.933 169.755 199.967 170.9 194.212C172.045 188.456 174.871 183.17 179.02 179.02C183.17 174.871 188.457 172.045 194.212 170.9C199.967 169.755 205.933 170.343 211.354 172.589C216.776 174.834 221.41 178.637 224.67 183.516C227.93 188.396 229.67 194.132 229.67 200C229.662 207.867 226.534 215.409 220.971 220.971C215.409 226.534 207.867 229.662 200 229.67ZM200 176.12C195.274 176.118 190.654 177.518 186.724 180.142C182.794 182.766 179.73 186.497 177.921 190.863C176.111 195.229 175.637 200.033 176.559 204.668C177.48 209.303 179.756 213.561 183.097 216.903C186.439 220.245 190.697 222.52 195.332 223.442C199.967 224.363 204.771 223.889 209.137 222.08C213.503 220.27 217.234 217.207 219.858 213.276C222.482 209.346 223.882 204.726 223.88 200C223.872 193.669 221.354 187.6 216.877 183.123C212.401 178.646 206.331 176.128 200 176.12Z" fill="white"/>
<path d="M206.278 215.136C214.641 211.672 218.612 202.084 215.148 193.721C211.684 185.358 202.097 181.387 193.734 184.851C185.371 188.315 181.399 197.903 184.863 206.265C188.328 214.628 197.915 218.6 206.278 215.136Z" fill="black"/>
<path d="M200 219.28C196.186 219.282 192.458 218.153 189.286 216.035C186.114 213.918 183.641 210.908 182.181 207.385C180.72 203.862 180.336 199.985 181.079 196.244C181.822 192.504 183.657 189.068 186.353 186.37C189.049 183.673 192.485 181.836 196.225 181.091C199.965 180.346 203.842 180.727 207.366 182.186C210.889 183.645 213.901 186.116 216.02 189.287C218.139 192.458 219.27 196.186 219.27 200C219.265 205.11 217.233 210.009 213.621 213.623C210.008 217.238 205.11 219.272 200 219.28ZM200 186.51C197.329 186.508 194.718 187.298 192.496 188.781C190.274 190.263 188.543 192.372 187.52 194.839C186.497 197.306 186.228 200.021 186.749 202.641C187.269 205.261 188.555 207.667 190.444 209.556C192.333 211.444 194.739 212.73 197.359 213.251C199.978 213.771 202.694 213.503 205.161 212.48C207.628 211.457 209.736 209.725 211.219 207.504C212.702 205.282 213.492 202.671 213.49 200C213.485 196.424 212.062 192.995 209.533 190.467C207.004 187.938 203.576 186.515 200 186.51Z" fill="white"/>
<path d="M200 181.87C199.616 181.87 199.247 181.717 198.975 181.445C198.703 181.174 198.55 180.805 198.55 180.42V175.91C198.533 175.71 198.558 175.509 198.623 175.319C198.688 175.13 198.792 174.956 198.928 174.808C199.064 174.66 199.229 174.543 199.412 174.462C199.596 174.381 199.794 174.34 199.995 174.34C200.196 174.34 200.394 174.381 200.578 174.462C200.761 174.543 200.926 174.66 201.062 174.808C201.198 174.956 201.302 175.13 201.367 175.319C201.432 175.509 201.457 175.71 201.44 175.91V180.42C201.441 180.61 201.405 180.798 201.333 180.974C201.262 181.15 201.156 181.31 201.022 181.445C200.888 181.58 200.729 181.687 200.553 181.76C200.378 181.833 200.19 181.87 200 181.87Z" fill="white"/>
<path d="M200 225.55C199.81 225.55 199.621 225.512 199.445 225.44C199.269 225.367 199.109 225.26 198.975 225.125C198.84 224.991 198.733 224.831 198.66 224.655C198.587 224.479 198.55 224.29 198.55 224.1V219.59C198.533 219.39 198.558 219.189 198.623 218.999C198.688 218.809 198.792 218.635 198.928 218.488C199.064 218.34 199.229 218.222 199.412 218.142C199.596 218.061 199.794 218.02 199.995 218.02C200.196 218.02 200.394 218.061 200.578 218.142C200.761 218.222 200.926 218.34 201.062 218.488C201.198 218.635 201.302 218.809 201.367 218.999C201.432 219.189 201.457 219.39 201.44 219.59V224.1C201.441 224.29 201.405 224.478 201.333 224.654C201.262 224.83 201.156 224.99 201.022 225.125C200.888 225.259 200.729 225.366 200.553 225.439C200.378 225.512 200.19 225.55 200 225.55Z" fill="white"/>
<path d="M224.14 201.45H219.63C219.43 201.466 219.229 201.441 219.039 201.376C218.849 201.311 218.675 201.207 218.528 201.072C218.38 200.936 218.262 200.771 218.182 200.587C218.101 200.404 218.06 200.205 218.06 200.005C218.06 199.804 218.101 199.606 218.182 199.422C218.262 199.238 218.38 199.073 218.528 198.938C218.675 198.802 218.849 198.698 219.039 198.633C219.229 198.568 219.43 198.543 219.63 198.56H224.14C224.34 198.543 224.541 198.568 224.731 198.633C224.92 198.698 225.094 198.802 225.242 198.938C225.39 199.073 225.508 199.238 225.588 199.422C225.669 199.606 225.71 199.804 225.71 200.005C225.71 200.205 225.669 200.404 225.588 200.587C225.508 200.771 225.39 200.936 225.242 201.072C225.094 201.207 224.92 201.311 224.731 201.376C224.541 201.441 224.34 201.466 224.14 201.45Z" fill="white"/>
<path d="M180.42 201.45H175.9C175.7 201.466 175.499 201.441 175.309 201.376C175.119 201.311 174.945 201.207 174.798 201.072C174.65 200.936 174.532 200.771 174.452 200.587C174.371 200.404 174.33 200.205 174.33 200.005C174.33 199.804 174.371 199.606 174.452 199.422C174.532 199.238 174.65 199.073 174.798 198.938C174.945 198.802 175.119 198.698 175.309 198.633C175.499 198.568 175.7 198.543 175.9 198.56H180.42C180.782 198.59 181.12 198.755 181.366 199.023C181.613 199.29 181.75 199.641 181.75 200.005C181.75 200.368 181.613 200.719 181.366 200.987C181.12 201.254 180.782 201.42 180.42 201.45Z" fill="white"/>
<path d="M213.84 187.6C213.465 187.596 213.106 187.445 212.84 187.18C212.586 186.909 212.444 186.551 212.444 186.18C212.444 185.808 212.586 185.451 212.84 185.18L216.03 181.99C216.304 181.729 216.669 181.585 217.048 181.59C217.426 181.595 217.788 181.747 218.055 182.015C218.323 182.282 218.475 182.644 218.48 183.022C218.485 183.401 218.341 183.766 218.08 184.04L214.89 187.23C214.602 187.485 214.225 187.618 213.84 187.6Z" fill="white"/>
<path d="M182.96 218.49C182.773 218.488 182.589 218.449 182.417 218.375C182.245 218.302 182.09 218.194 181.96 218.06C181.699 217.793 181.552 217.434 181.552 217.06C181.552 216.686 181.699 216.327 181.96 216.06L185.15 212.87C185.269 212.695 185.425 212.547 185.608 212.439C185.79 212.331 185.995 212.265 186.206 212.245C186.417 212.225 186.63 212.252 186.829 212.323C187.029 212.395 187.21 212.51 187.36 212.66C187.51 212.81 187.625 212.991 187.697 213.191C187.769 213.39 187.795 213.603 187.775 213.815C187.755 214.026 187.689 214.23 187.581 214.412C187.473 214.595 187.326 214.751 187.15 214.87L183.96 218.06C183.83 218.194 183.675 218.302 183.503 218.375C183.332 218.449 183.147 218.488 182.96 218.49Z" fill="white"/>
<path d="M217.04 218.49C216.663 218.482 216.305 218.328 216.04 218.06L212.85 214.87C212.651 214.588 212.559 214.245 212.59 213.901C212.621 213.557 212.774 213.236 213.021 212.995C213.268 212.754 213.593 212.609 213.937 212.586C214.282 212.563 214.623 212.664 214.9 212.87L218.09 216.06C218.347 216.33 218.49 216.688 218.49 217.06C218.49 217.432 218.347 217.79 218.09 218.06C217.954 218.2 217.791 218.311 217.61 218.385C217.429 218.459 217.235 218.495 217.04 218.49Z" fill="white"/>
<path d="M186.14 187.6C185.765 187.595 185.406 187.445 185.14 187.18L181.95 183.99C181.744 183.713 181.643 183.372 181.666 183.027C181.689 182.683 181.834 182.358 182.075 182.111C182.316 181.864 182.638 181.711 182.981 181.68C183.325 181.648 183.668 181.741 183.95 181.94L187.14 185.13C187.34 185.331 187.476 185.587 187.532 185.865C187.587 186.143 187.56 186.431 187.454 186.694C187.347 186.957 187.166 187.183 186.933 187.344C186.699 187.505 186.424 187.594 186.14 187.6Z" fill="white"/>
<path d="M207.49 183.36C207.302 183.357 207.115 183.32 206.94 183.25C206.585 183.104 206.302 182.822 206.154 182.468C206.006 182.114 206.005 181.715 206.15 181.36L207.88 177.19C208.026 176.836 208.307 176.554 208.66 176.407C209.014 176.26 209.411 176.259 209.765 176.405C210.119 176.551 210.401 176.831 210.548 177.185C210.695 177.538 210.696 177.936 210.55 178.29L208.83 182.47C208.718 182.733 208.532 182.958 208.294 183.116C208.055 183.274 207.776 183.359 207.49 183.36Z" fill="white"/>
<path d="M190.78 223.67C190.588 223.673 190.397 223.636 190.22 223.56C190.044 223.488 189.885 223.381 189.75 223.247C189.616 223.113 189.509 222.953 189.437 222.777C189.364 222.602 189.327 222.413 189.328 222.223C189.328 222.033 189.367 221.845 189.44 221.67L191.17 217.5C191.242 217.324 191.349 217.164 191.483 217.03C191.617 216.895 191.777 216.789 191.953 216.716C192.128 216.644 192.317 216.607 192.507 216.607C192.697 216.608 192.885 216.646 193.06 216.72C193.413 216.868 193.694 217.15 193.84 217.504C193.986 217.858 193.986 218.256 193.84 218.61L192.11 222.78C192.001 223.043 191.817 223.268 191.58 223.427C191.343 223.585 191.065 223.67 190.78 223.67Z" fill="white"/>
<path d="M222.26 210.67C222.071 210.673 221.883 210.635 221.71 210.56L217.54 208.83C217.364 208.757 217.205 208.651 217.071 208.518C216.936 208.384 216.83 208.225 216.757 208.05C216.684 207.875 216.646 207.687 216.646 207.497C216.646 207.308 216.683 207.12 216.755 206.945C216.827 206.769 216.933 206.61 217.067 206.476C217.201 206.341 217.36 206.235 217.535 206.162C217.71 206.089 217.898 206.051 218.087 206.051C218.277 206.05 218.465 206.087 218.64 206.16L222.81 207.89C223.114 208.021 223.363 208.253 223.517 208.546C223.671 208.839 223.72 209.176 223.655 209.501C223.591 209.826 223.418 210.119 223.164 210.332C222.91 210.544 222.591 210.663 222.26 210.67Z" fill="white"/>
<path d="M181.91 193.96C181.718 193.959 181.528 193.921 181.35 193.85L177.18 192.12C176.99 192.058 176.815 191.957 176.666 191.824C176.518 191.691 176.398 191.529 176.314 191.347C176.231 191.165 176.186 190.968 176.183 190.769C176.179 190.569 176.217 190.371 176.294 190.186C176.37 190.002 176.484 189.835 176.628 189.697C176.772 189.559 176.944 189.452 177.131 189.382C177.319 189.313 177.518 189.284 177.718 189.295C177.917 189.307 178.112 189.36 178.29 189.45L182.46 191.17C182.77 191.299 183.025 191.53 183.184 191.825C183.342 192.121 183.393 192.462 183.329 192.791C183.264 193.12 183.087 193.416 182.828 193.629C182.57 193.842 182.245 193.96 181.91 193.96Z" fill="white"/>
<path d="M218.14 193.96C217.805 193.959 217.48 193.842 217.221 193.628C216.963 193.415 216.786 193.119 216.721 192.79C216.656 192.461 216.708 192.12 216.866 191.825C217.024 191.529 217.28 191.298 217.59 191.17L221.76 189.45C222.114 189.304 222.511 189.305 222.865 189.452C223.219 189.599 223.499 189.881 223.645 190.235C223.791 190.589 223.79 190.986 223.643 191.34C223.496 191.693 223.214 191.974 222.86 192.12L218.69 193.85C218.515 193.92 218.328 193.957 218.14 193.96Z" fill="white"/>
<path d="M177.74 210.67C177.408 210.666 177.088 210.549 176.832 210.337C176.576 210.125 176.401 209.832 176.336 209.507C176.27 209.181 176.318 208.843 176.472 208.549C176.626 208.255 176.875 208.022 177.18 207.89L181.35 206.16C181.704 206.014 182.102 206.014 182.456 206.16C182.81 206.307 183.092 206.587 183.24 206.94C183.314 207.116 183.352 207.304 183.353 207.494C183.353 207.684 183.316 207.872 183.244 208.048C183.171 208.223 183.064 208.383 182.93 208.517C182.795 208.652 182.636 208.758 182.46 208.83L178.29 210.56C178.116 210.635 177.929 210.673 177.74 210.67Z" fill="white"/>
<path d="M209.22 223.67C208.934 223.672 208.653 223.589 208.414 223.43C208.176 223.271 207.99 223.045 207.88 222.78L206.14 218.67C205.993 218.315 205.993 217.916 206.14 217.56C206.287 217.205 206.57 216.923 206.925 216.775C207.28 216.628 207.68 216.628 208.035 216.775C208.391 216.923 208.673 217.205 208.82 217.56L210.54 221.73C210.614 221.906 210.652 222.094 210.653 222.284C210.653 222.474 210.616 222.662 210.544 222.838C210.471 223.014 210.365 223.173 210.23 223.308C210.096 223.442 209.936 223.548 209.76 223.62C209.586 223.673 209.402 223.69 209.22 223.67Z" fill="white"/>
<path d="M192.5 183.36C192.215 183.358 191.937 183.273 191.701 183.115C191.464 182.957 191.28 182.732 191.17 182.47L189.44 178.29C189.294 177.936 189.295 177.538 189.442 177.185C189.589 176.831 189.871 176.551 190.225 176.405C190.579 176.259 190.977 176.26 191.33 176.407C191.684 176.554 191.964 176.836 192.11 177.19L193.84 181.36C193.983 181.714 193.982 182.111 193.836 182.464C193.69 182.817 193.411 183.1 193.06 183.25C192.882 183.321 192.692 183.358 192.5 183.36Z" fill="white"/>
</g>
<defs>
<clipPath id="clip0_287_74557">
<rect width="400" height="400" fill="white"/>
</clipPath>
</defs>
</svg>
