<svg width="718" height="201" viewBox="0 0 718 201" fill="none" xmlns="http://www.w3.org/2000/svg">
<path d="M100 115.12C97.0125 115.121 94.0916 114.236 91.6069 112.577C89.1223 110.918 87.1854 108.559 86.0414 105.799C84.8973 103.039 84.5975 100.002 85.1798 97.0714C85.7621 94.141 87.2003 91.4491 89.3126 89.3361C91.4249 87.2231 94.1163 85.784 97.0465 85.2008C99.9767 84.6176 103.014 84.9164 105.774 86.0595C108.535 87.2026 110.894 89.1385 112.554 91.6227C114.214 94.1068 115.1 97.0275 115.1 100.015C115.096 104.019 113.504 107.858 110.673 110.69C107.842 113.521 104.004 115.115 100 115.12ZM100 85.1552C97.0598 85.1542 94.185 86.0252 91.7397 87.6582C89.2944 89.2912 87.3884 91.6128 86.2627 94.3293C85.137 97.0457 84.8421 100.035 85.4155 102.919C85.9889 105.803 87.4048 108.452 89.484 110.531C91.5632 112.61 94.2124 114.026 97.0964 114.6C99.9804 115.173 102.969 114.878 105.686 113.752C108.402 112.627 110.724 110.721 112.357 108.275C113.99 105.83 114.861 102.955 114.86 100.015C114.855 96.0757 113.287 92.2991 110.502 89.5134C107.716 86.7278 103.94 85.1605 100 85.1552Z" fill="white"/>
<path d="M99.9999 119.22C96.2016 119.22 92.4884 118.094 89.3302 115.983C86.1719 113.873 83.7104 110.874 82.2568 107.364C80.8032 103.855 80.4229 99.9938 81.1639 96.2684C81.9049 92.543 83.734 89.121 86.4199 86.4351C89.1058 83.7492 92.5279 81.9201 96.2533 81.1791C99.9787 80.4381 103.84 80.8184 107.349 82.272C110.859 83.7256 113.858 86.1871 115.968 89.3454C118.079 92.5036 119.205 96.2167 119.205 100.015C119.2 105.107 117.175 109.989 113.574 113.589C109.974 117.19 105.092 119.215 99.9999 119.22ZM99.9999 81.1601C96.2708 81.1601 92.6253 82.2659 89.5246 84.3377C86.4239 86.4095 84.0073 89.3543 82.5802 92.7996C81.1531 96.2449 80.7796 100.036 81.5072 103.693C82.2347 107.351 84.0305 110.711 86.6674 113.347C89.3044 115.984 92.664 117.78 96.3215 118.508C99.979 119.235 103.77 118.862 107.216 117.435C110.661 116.008 113.605 113.591 115.677 110.49C117.749 107.39 118.855 103.744 118.855 100.015C118.85 95.0161 116.861 90.2233 113.327 86.6884C109.792 83.1536 104.999 81.1654 99.9999 81.1601Z" fill="white"/>
<path d="M99.9999 123.35C95.3897 123.35 90.8828 121.983 87.0495 119.422C83.2162 116.86 80.2286 113.22 78.4643 108.96C76.7001 104.701 76.2384 100.014 77.1378 95.4924C78.0372 90.9707 80.2573 86.8173 83.5173 83.5573C86.7773 80.2974 90.9307 78.0773 95.4524 77.1779C99.9741 76.2784 104.661 76.7401 108.92 78.5043C113.18 80.2686 116.82 83.2563 119.382 87.0896C121.943 90.9229 123.31 95.4297 123.31 100.04C123.303 106.22 120.845 112.145 116.475 116.515C112.105 120.885 106.18 123.343 99.9999 123.35ZM99.9999 77.19C95.4807 77.19 91.0628 78.5301 87.3051 81.0409C83.5475 83.5517 80.6187 87.1204 78.8893 91.2957C77.1598 95.4709 76.7073 100.065 77.589 104.498C78.4706 108.93 80.6469 113.002 83.8425 116.197C87.0381 119.393 91.1096 121.569 95.5421 122.451C99.9745 123.333 104.569 122.88 108.744 121.151C112.92 119.421 116.488 116.492 118.999 112.735C121.51 108.977 122.85 104.559 122.85 100.04C122.85 93.9775 120.443 88.1629 116.159 83.8738C111.874 79.5846 106.063 77.1716 99.9999 77.165V77.19Z" fill="white"/>
<path d="M100 127.43C94.5778 127.431 89.2768 125.824 84.7678 122.812C80.2588 119.8 76.7442 115.519 74.6684 110.51C72.5927 105.5 72.049 99.9881 73.1063 94.6697C74.1635 89.3514 76.7741 84.4661 80.608 80.6315C84.4418 76.7969 89.3267 74.1854 94.6449 73.1272C99.963 72.069 105.475 72.6116 110.485 74.6864C115.495 76.7613 119.777 80.2751 122.789 84.7836C125.802 89.2921 127.41 94.5927 127.41 100.015C127.401 107.282 124.51 114.249 119.372 119.388C114.234 124.527 107.267 127.419 100 127.43ZM100 73.1751C94.6903 73.1741 89.4993 74.7478 85.0839 77.6972C80.6685 80.6466 77.227 84.8391 75.1945 89.7446C73.1621 94.6501 72.6301 100.048 73.6657 105.256C74.7014 110.464 77.2583 115.248 81.0129 119.002C84.7675 122.757 89.5513 125.314 94.7592 126.349C99.9671 127.385 105.365 126.853 110.27 124.821C115.176 122.788 119.369 119.347 122.318 114.931C125.267 110.516 126.841 105.325 126.84 100.015C126.832 92.8991 124.002 86.0769 118.97 81.0451C113.938 76.0134 107.116 73.183 100 73.1751Z" fill="white"/>
<path d="M100 131.535C93.77 131.535 87.6798 129.687 82.4996 126.226C77.3195 122.765 73.282 117.845 70.8978 112.089C68.5136 106.334 67.8899 100 69.1053 93.8898C70.3208 87.7794 73.3208 82.1667 77.7262 77.7613C82.1315 73.356 87.7443 70.3559 93.8547 69.1404C99.9651 67.925 106.299 68.5488 112.054 70.933C117.81 73.3171 122.73 77.3546 126.191 82.5347C129.653 87.7149 131.5 93.8051 131.5 100.035C131.485 108.385 128.162 116.389 122.258 122.293C116.353 128.197 108.35 131.52 100 131.535ZM100 69.1802C93.9001 69.1792 87.9367 70.9872 82.8644 74.3756C77.792 77.7639 73.8383 82.5804 71.5035 88.2159C69.1687 93.8514 68.5576 100.052 69.7474 106.035C70.9372 112.018 73.8745 117.514 78.1878 121.827C82.5012 126.14 87.9969 129.078 93.9797 130.268C99.9626 131.457 106.164 130.846 111.799 128.511C117.435 126.177 122.251 122.223 125.64 117.151C129.028 112.078 130.836 106.115 130.835 100.015C130.824 91.8405 127.572 84.0036 121.792 78.2232C116.011 72.4428 108.175 69.1907 100 69.1802Z" fill="white"/>
<path d="M99.9999 135.635C92.955 135.635 86.0682 133.546 80.2105 129.632C74.3528 125.718 69.7873 120.155 67.0913 113.646C64.3953 107.137 63.6899 99.9756 65.0643 93.066C66.4387 86.1564 69.8312 79.8095 74.8127 74.8279C79.7942 69.8464 86.1411 66.4539 93.0507 65.0795C99.9603 63.7051 107.122 64.4105 113.631 67.1065C120.14 69.8025 125.703 74.368 129.617 80.2257C133.531 86.0833 135.62 92.9701 135.62 100.015C135.609 109.459 131.853 118.513 125.175 125.19C118.498 131.868 109.444 135.624 99.9999 135.635ZM99.9999 65.1851C93.1098 65.1841 86.3741 67.2264 80.6447 71.0538C74.9154 74.8811 70.4497 80.3215 67.8125 86.687C65.1753 93.0525 64.4851 100.057 65.8291 106.815C67.173 113.573 70.4908 119.78 75.3629 124.652C80.2349 129.524 86.4424 132.842 93.2001 134.186C99.9579 135.53 106.963 134.84 113.328 132.202C119.694 129.565 125.134 125.099 128.961 119.37C132.789 113.641 134.831 106.905 134.83 100.015C134.819 90.7808 131.146 81.9278 124.617 75.3982C118.087 68.8686 109.234 65.1957 99.9999 65.1851Z" fill="white"/>
<path d="M100 139.74C92.1431 139.741 84.4621 137.412 77.9287 133.048C71.3953 128.683 66.3029 122.479 63.2954 115.221C60.288 107.962 59.5005 99.9744 61.0328 92.2682C62.565 84.5619 66.348 77.4832 71.9035 71.927C77.4589 66.3709 84.5373 62.587 92.2433 61.0538C99.9493 59.5205 107.937 60.3069 115.196 63.3135C122.455 66.32 128.66 71.4117 133.025 77.9445C137.39 84.4774 139.72 92.158 139.72 100.015C139.708 110.546 135.52 120.643 128.073 128.09C120.627 135.537 110.531 139.727 100 139.74ZM100 61.1901C92.3213 61.1901 84.8148 63.4671 78.4301 67.7333C72.0454 71.9994 67.0691 78.063 64.1305 85.1574C61.192 92.2517 60.423 100.058 61.9211 107.589C63.4191 115.121 67.1169 122.039 72.5467 127.468C77.9764 132.898 84.8944 136.596 92.4257 138.094C99.957 139.592 107.763 138.823 114.858 135.885C121.952 132.946 128.016 127.97 132.282 121.585C136.548 115.2 138.825 107.694 138.825 100.015C138.813 89.7217 134.719 79.8533 127.44 72.5748C120.162 65.2963 110.293 61.202 100 61.1901Z" fill="white"/>
<path d="M100 143.85C91.3312 143.851 82.8566 141.281 75.6481 136.466C68.4397 131.65 62.821 124.805 59.5029 116.796C56.1847 108.788 55.316 99.9747 57.0067 91.4721C58.6973 82.9696 62.8714 75.1594 69.0009 69.0292C75.1305 62.899 82.9401 58.7241 91.4425 57.0325C99.9448 55.3409 108.758 56.2085 116.767 59.5258C124.776 62.843 131.622 68.4608 136.438 75.6687C141.254 82.8767 143.825 91.3509 143.825 100.02C143.813 111.64 139.192 122.781 130.976 130.998C122.76 139.215 111.62 143.837 100 143.85ZM100 57.1999C91.5312 57.1999 83.2524 59.7112 76.2106 64.4164C69.1689 69.1215 63.6806 75.8091 60.4397 83.6334C57.1987 91.4577 56.3507 100.067 58.0029 108.374C59.6551 116.68 63.7334 124.31 69.7219 130.298C75.7104 136.287 83.34 140.365 91.6463 142.017C99.9526 143.669 108.562 142.821 116.387 139.581C124.211 136.34 130.898 130.851 135.604 123.809C140.309 116.768 142.82 108.489 142.82 100.02C142.808 88.6665 138.293 77.7815 130.265 69.753C122.238 61.7245 111.353 57.2081 100 57.1949V57.1999Z" fill="white"/>
<path d="M99.9998 147.945C90.5202 147.945 81.2533 145.134 73.3713 139.867C65.4893 134.601 59.3459 127.115 55.7182 118.357C52.0905 109.599 51.1414 99.9618 52.9908 90.6643C54.8402 81.3668 59.405 72.8265 66.1081 66.1234C72.8112 59.4202 81.3516 54.8554 90.6491 53.006C99.9466 51.1566 109.584 52.1057 118.342 55.7334C127.1 59.3611 134.586 65.5045 139.852 73.3865C145.119 81.2686 147.93 90.5353 147.93 100.015C147.911 112.721 142.856 124.902 133.871 133.886C124.887 142.871 112.706 147.926 99.9998 147.945ZM99.9998 53.205C90.7403 53.204 81.6883 55.9489 73.9889 61.0927C66.2894 66.2364 60.2883 73.5478 56.7443 82.1024C53.2004 90.6569 52.2729 100.07 54.0791 109.152C55.8853 118.234 60.3441 126.576 66.8916 133.123C73.4391 139.671 81.7812 144.129 90.8629 145.936C99.9446 147.742 109.358 146.814 117.913 143.27C126.467 139.726 133.779 133.725 138.922 126.026C144.066 118.326 146.811 109.275 146.81 100.015C146.795 87.6047 141.859 75.7068 133.084 66.9314C124.308 58.156 112.41 53.2196 99.9998 53.205Z" fill="white"/>
<path d="M99.9999 152.05C89.7082 152.051 79.6472 149 71.0894 143.283C62.5316 137.566 55.8615 129.439 51.9223 119.931C47.9831 110.423 46.952 99.9606 48.9592 89.8665C50.9664 79.7724 55.9218 70.5002 63.1988 63.2224C70.4758 55.9447 79.7476 50.9884 89.8415 48.9802C99.9354 46.972 110.398 48.0022 119.907 51.9404C129.415 55.8787 137.542 62.5481 143.26 71.1053C148.978 79.6626 152.03 89.7232 152.03 100.015C152.015 113.81 146.529 127.036 136.775 136.791C127.021 146.547 113.795 152.034 99.9999 152.05ZM99.9999 49.21C89.9502 49.209 80.1259 52.1882 71.7695 57.7709C63.413 63.3536 56.8998 71.289 53.0535 80.5735C49.2072 89.858 48.2006 100.075 50.161 109.931C52.1213 119.788 56.9606 128.842 64.0668 135.948C71.173 143.054 80.2269 147.894 90.0836 149.854C99.9402 151.814 110.157 150.808 119.441 146.961C128.726 143.115 136.661 136.602 142.244 128.245C147.827 119.889 150.806 110.065 150.805 100.015C150.789 86.5455 145.431 73.6323 135.907 64.1079C126.383 54.5836 113.469 49.2258 99.9999 49.21Z" fill="white"/>
<path d="M99.9999 156.155C88.8963 156.156 78.0416 152.864 68.8088 146.696C59.576 140.528 52.3796 131.76 48.1297 121.502C43.8799 111.244 42.7675 99.9561 44.9331 89.0657C47.0987 78.1753 52.4451 68.1716 60.2962 60.3198C68.1474 52.468 78.1505 47.1207 89.0407 44.9541C99.931 42.7875 111.219 43.899 121.478 48.1479C131.736 52.3969 140.504 59.5925 146.673 68.8248C152.842 78.057 156.135 88.9113 156.135 100.015C156.118 114.898 150.198 129.167 139.675 139.691C129.151 150.216 114.883 156.136 99.9999 156.155ZM99.9999 45.215C89.1601 45.214 78.5634 48.4275 69.55 54.4492C60.5366 60.4709 53.5113 69.0302 49.3627 79.0447C45.214 89.0592 44.1283 100.079 46.2428 110.711C48.3573 121.342 53.577 131.108 61.2419 138.773C68.9068 146.438 78.6726 151.658 89.3042 153.772C99.9358 155.887 110.956 154.801 120.97 150.652C130.985 146.504 139.544 139.478 145.566 130.465C151.587 121.451 154.801 110.855 154.8 100.015C154.784 85.486 149.005 71.5566 138.732 61.2831C128.458 51.0095 114.529 45.2309 99.9999 45.215Z" fill="white"/>
<path d="M99.9999 160.26C88.0844 160.261 76.4361 156.728 66.5282 150.109C56.6203 143.49 48.8978 134.081 44.3373 123.073C39.7767 112.065 38.583 99.9516 40.907 88.2649C43.231 76.5782 48.9683 65.8431 57.3935 57.4172C65.8188 48.9913 76.5533 43.253 88.2398 40.928C99.9264 38.6031 112.04 39.7958 123.049 44.3555C134.057 48.9151 143.466 56.6369 150.086 66.5442C156.707 76.4516 160.24 88.0995 160.24 100.015C160.223 115.987 153.871 131.3 142.577 142.594C131.284 153.888 115.972 160.241 99.9999 160.26ZM99.9999 41.2201C88.3714 41.2201 77.004 44.6683 67.3352 51.1288C57.6664 57.5893 50.1305 66.7718 45.6804 77.5152C41.2304 88.2586 40.0661 100.08 42.3347 111.485C44.6033 122.89 50.203 133.367 58.4256 141.589C66.6483 149.812 77.1245 155.412 88.5296 157.68C99.9348 159.949 111.757 158.784 122.5 154.334C133.243 149.884 142.426 142.348 148.886 132.68C155.347 123.011 158.795 111.644 158.795 100.015C158.778 84.427 152.578 69.4822 141.555 58.4597C130.533 47.4373 115.588 41.2373 99.9999 41.2201Z" fill="white"/>
<path d="M173.965 98.5498C174.255 98.5498 174.538 98.6357 174.779 98.7967C175.02 98.9577 175.208 99.1865 175.318 99.4541C175.429 99.7218 175.458 100.017 175.402 100.301C175.345 100.585 175.206 100.846 175.001 101.051C174.796 101.256 174.535 101.395 174.251 101.452C173.967 101.508 173.672 101.479 173.404 101.368C173.137 101.258 172.908 101.07 172.747 100.829C172.586 100.588 172.5 100.305 172.5 100.015C172.5 99.6262 172.654 99.2536 172.929 98.9789C173.204 98.7041 173.576 98.5498 173.965 98.5498Z" fill="white"/>
<path d="M173.84 104.625C174.129 104.649 174.404 104.758 174.631 104.938C174.858 105.118 175.026 105.361 175.115 105.637C175.204 105.913 175.208 106.209 175.129 106.488C175.049 106.766 174.889 107.015 174.668 107.202C174.447 107.39 174.175 107.507 173.887 107.541C173.599 107.574 173.308 107.521 173.05 107.388C172.793 107.256 172.58 107.05 172.439 106.796C172.299 106.543 172.236 106.254 172.26 105.965C172.275 105.773 172.328 105.586 172.416 105.415C172.504 105.243 172.624 105.091 172.771 104.966C172.918 104.842 173.088 104.747 173.272 104.689C173.455 104.63 173.648 104.609 173.84 104.625Z" fill="white"/>
<path d="M173.235 110.57C173.521 110.617 173.786 110.748 173.997 110.946C174.209 111.144 174.357 111.4 174.422 111.682C174.488 111.964 174.469 112.259 174.367 112.53C174.265 112.802 174.086 113.036 173.85 113.205C173.615 113.374 173.335 113.47 173.046 113.479C172.756 113.489 172.471 113.413 172.224 113.261C171.978 113.108 171.783 112.886 171.663 112.623C171.543 112.359 171.503 112.066 171.55 111.78C171.581 111.59 171.649 111.408 171.751 111.244C171.852 111.08 171.985 110.938 172.141 110.825C172.298 110.713 172.475 110.633 172.663 110.589C172.85 110.545 173.045 110.539 173.235 110.57Z" fill="white"/>
<path d="M172.165 116.35C172.447 116.419 172.701 116.57 172.897 116.784C173.093 116.998 173.221 117.265 173.265 117.551C173.309 117.838 173.267 118.131 173.144 118.394C173.021 118.656 172.823 118.877 172.575 119.027C172.327 119.177 172.039 119.25 171.75 119.236C171.46 119.223 171.181 119.124 170.947 118.952C170.714 118.78 170.537 118.543 170.439 118.27C170.34 117.997 170.325 117.701 170.395 117.42C170.488 117.044 170.727 116.72 171.059 116.519C171.391 116.319 171.788 116.258 172.165 116.35Z" fill="white"/>
<path d="M170.66 122.005C170.935 122.097 171.176 122.268 171.353 122.496C171.531 122.725 171.637 123.001 171.657 123.29C171.678 123.579 171.612 123.868 171.469 124.119C171.326 124.371 171.111 124.574 170.852 124.704C170.594 124.834 170.302 124.884 170.015 124.848C169.728 124.813 169.457 124.692 169.238 124.503C169.019 124.314 168.861 124.064 168.784 123.785C168.707 123.506 168.714 123.21 168.805 122.935C168.928 122.566 169.193 122.261 169.54 122.087C169.888 121.912 170.291 121.883 170.66 122.005Z" fill="white"/>
<path d="M168.725 127.46C168.992 127.573 169.219 127.763 169.378 128.005C169.537 128.248 169.62 128.532 169.618 128.821C169.615 129.111 169.527 129.394 169.364 129.633C169.201 129.873 168.97 130.059 168.701 130.167C168.433 130.276 168.138 130.302 167.854 130.243C167.57 130.184 167.31 130.042 167.107 129.835C166.904 129.628 166.767 129.366 166.713 129.081C166.66 128.796 166.691 128.502 166.805 128.235C166.957 127.878 167.245 127.596 167.605 127.45C167.965 127.305 168.368 127.308 168.725 127.46Z" fill="white"/>
<path d="M166.385 132.71C166.639 132.847 166.847 133.055 166.982 133.31C167.118 133.564 167.176 133.853 167.149 134.14C167.121 134.427 167.01 134.699 166.828 134.923C166.646 135.147 166.402 135.312 166.127 135.398C165.852 135.484 165.558 135.487 165.281 135.406C165.004 135.326 164.757 135.165 164.571 134.945C164.385 134.725 164.268 134.455 164.235 134.168C164.202 133.882 164.254 133.592 164.385 133.335C164.473 133.161 164.596 133.007 164.745 132.881C164.894 132.755 165.067 132.66 165.253 132.602C165.44 132.543 165.636 132.523 165.83 132.542C166.024 132.56 166.213 132.617 166.385 132.71Z" fill="white"/>
<path d="M163.655 137.735C163.903 137.886 164.101 138.108 164.223 138.371C164.345 138.635 164.386 138.93 164.341 139.217C164.295 139.504 164.165 139.771 163.967 139.984C163.769 140.197 163.512 140.346 163.229 140.413C162.946 140.479 162.649 140.46 162.377 140.358C162.105 140.255 161.87 140.074 161.701 139.837C161.532 139.6 161.438 139.319 161.429 139.028C161.421 138.737 161.5 138.451 161.655 138.205C161.859 137.879 162.184 137.647 162.558 137.559C162.933 137.471 163.327 137.534 163.655 137.735Z" fill="white"/>
<path d="M160.57 142.52C160.804 142.691 160.982 142.928 161.081 143.2C161.181 143.472 161.197 143.768 161.129 144.05C161.06 144.331 160.909 144.586 160.696 144.782C160.482 144.978 160.215 145.106 159.928 145.151C159.642 145.195 159.349 145.153 159.086 145.03C158.823 144.908 158.603 144.71 158.453 144.462C158.302 144.214 158.229 143.927 158.242 143.637C158.255 143.348 158.353 143.069 158.525 142.835C158.638 142.68 158.781 142.548 158.945 142.448C159.11 142.348 159.292 142.282 159.482 142.253C159.672 142.223 159.866 142.232 160.053 142.278C160.239 142.324 160.415 142.406 160.57 142.52Z" fill="white"/>
<path d="M157.115 147.04C157.335 147.228 157.495 147.478 157.573 147.757C157.651 148.036 157.645 148.332 157.555 148.607C157.465 148.883 157.296 149.125 157.068 149.305C156.84 149.484 156.565 149.591 156.276 149.614C155.987 149.636 155.698 149.572 155.445 149.43C155.192 149.288 154.988 149.075 154.856 148.816C154.725 148.558 154.673 148.267 154.708 147.979C154.742 147.691 154.861 147.42 155.05 147.2C155.303 146.906 155.663 146.725 156.049 146.695C156.436 146.665 156.819 146.789 157.115 147.04Z" fill="white"/>
<path d="M153.335 151.285C153.54 151.49 153.68 151.751 153.737 152.035C153.793 152.319 153.765 152.614 153.654 152.882C153.543 153.15 153.355 153.379 153.114 153.54C152.873 153.701 152.59 153.787 152.3 153.787C152.01 153.787 151.727 153.701 151.486 153.54C151.245 153.379 151.057 153.15 150.946 152.882C150.835 152.614 150.807 152.319 150.863 152.035C150.92 151.751 151.06 151.49 151.265 151.285C151.401 151.149 151.562 151.04 151.74 150.967C151.917 150.893 152.108 150.855 152.3 150.855C152.492 150.855 152.683 150.893 152.86 150.967C153.038 151.04 153.199 151.149 153.335 151.285Z" fill="white"/>
<path d="M149.25 155.225C149.438 155.445 149.556 155.716 149.59 156.004C149.624 156.291 149.572 156.582 149.441 156.84C149.309 157.098 149.105 157.312 148.852 157.453C148.6 157.595 148.311 157.659 148.022 157.636C147.734 157.614 147.458 157.507 147.23 157.328C147.003 157.149 146.833 156.907 146.743 156.632C146.653 156.357 146.646 156.061 146.724 155.782C146.802 155.503 146.96 155.254 147.18 155.065C147.326 154.939 147.496 154.844 147.679 154.783C147.863 154.723 148.056 154.7 148.248 154.715C148.441 154.73 148.628 154.783 148.8 154.87C148.972 154.958 149.125 155.078 149.25 155.225Z" fill="white"/>
<path d="M144.865 158.85C145.036 159.084 145.134 159.363 145.146 159.652C145.159 159.942 145.085 160.228 144.935 160.476C144.785 160.723 144.564 160.921 144.302 161.043C144.039 161.165 143.747 161.207 143.46 161.163C143.174 161.119 142.907 160.991 142.694 160.796C142.48 160.6 142.329 160.346 142.26 160.065C142.191 159.783 142.207 159.488 142.306 159.216C142.404 158.943 142.582 158.707 142.815 158.535C143.129 158.306 143.521 158.21 143.905 158.269C144.289 158.328 144.634 158.537 144.865 158.85Z" fill="white"/>
<path d="M140.205 162.13C140.36 162.376 140.439 162.662 140.43 162.953C140.422 163.244 140.328 163.525 140.159 163.762C139.99 163.999 139.755 164.18 139.483 164.283C139.21 164.385 138.914 164.404 138.631 164.338C138.348 164.271 138.091 164.122 137.893 163.909C137.695 163.696 137.565 163.429 137.519 163.142C137.473 162.855 137.514 162.56 137.636 162.297C137.759 162.033 137.956 161.811 138.205 161.66C138.533 161.459 138.927 161.396 139.302 161.484C139.676 161.572 140.001 161.804 140.205 162.13Z" fill="white"/>
<path d="M135.29 165.055C135.42 165.312 135.471 165.602 135.437 165.888C135.403 166.175 135.286 166.444 135.099 166.664C134.913 166.884 134.665 167.044 134.388 167.124C134.112 167.203 133.817 167.2 133.542 167.113C133.267 167.027 133.024 166.861 132.843 166.637C132.662 166.412 132.551 166.14 132.524 165.853C132.497 165.566 132.555 165.277 132.691 165.023C132.828 164.769 133.036 164.561 133.29 164.425C133.462 164.333 133.651 164.276 133.846 164.257C134.04 164.239 134.236 164.26 134.423 164.319C134.609 164.377 134.782 164.473 134.931 164.599C135.08 164.726 135.202 164.881 135.29 165.055Z" fill="white"/>
<path d="M130.14 167.6C130.253 167.867 130.284 168.161 130.229 168.446C130.174 168.73 130.037 168.992 129.833 169.198C129.63 169.405 129.369 169.546 129.086 169.604C128.802 169.663 128.507 169.636 128.239 169.527C127.97 169.418 127.74 169.232 127.578 168.992C127.415 168.752 127.327 168.469 127.325 168.18C127.323 167.89 127.407 167.606 127.566 167.364C127.726 167.122 127.953 166.933 128.22 166.82C128.397 166.745 128.588 166.706 128.78 166.705C128.973 166.703 129.163 166.74 129.342 166.812C129.52 166.885 129.682 166.991 129.819 167.127C129.956 167.262 130.065 167.423 130.14 167.6Z" fill="white"/>
<path d="M124.77 169.75C124.862 170.025 124.87 170.321 124.794 170.6C124.717 170.879 124.56 171.13 124.341 171.32C124.123 171.51 123.852 171.631 123.565 171.667C123.278 171.704 122.986 171.654 122.727 171.525C122.467 171.396 122.252 171.193 122.109 170.941C121.965 170.69 121.899 170.401 121.919 170.112C121.939 169.823 122.045 169.547 122.222 169.318C122.399 169.088 122.64 168.917 122.915 168.825C123.097 168.764 123.29 168.739 123.482 168.753C123.674 168.766 123.862 168.817 124.034 168.903C124.206 168.989 124.36 169.108 124.486 169.253C124.613 169.399 124.709 169.567 124.77 169.75Z" fill="white"/>
<path d="M119.195 171.485C119.264 171.766 119.248 172.062 119.149 172.334C119.049 172.607 118.872 172.844 118.638 173.015C118.404 173.186 118.125 173.284 117.835 173.297C117.546 173.309 117.259 173.236 117.011 173.085C116.764 172.935 116.566 172.714 116.444 172.452C116.321 172.189 116.28 171.896 116.324 171.61C116.368 171.323 116.497 171.056 116.693 170.843C116.889 170.629 117.143 170.479 117.425 170.41C117.612 170.364 117.806 170.355 117.996 170.384C118.186 170.413 118.369 170.479 118.534 170.579C118.698 170.679 118.841 170.811 118.955 170.966C119.068 171.122 119.15 171.298 119.195 171.485Z" fill="white"/>
<path d="M113.44 172.78C113.487 173.066 113.448 173.359 113.327 173.623C113.207 173.887 113.012 174.109 112.765 174.262C112.519 174.414 112.233 174.49 111.943 174.48C111.653 174.47 111.373 174.374 111.138 174.205C110.903 174.035 110.723 173.8 110.622 173.529C110.52 173.257 110.502 172.962 110.568 172.68C110.635 172.397 110.784 172.141 110.996 171.944C111.208 171.746 111.474 171.616 111.76 171.57C111.95 171.539 112.144 171.545 112.331 171.589C112.519 171.633 112.695 171.713 112.852 171.826C113.008 171.938 113.14 172.08 113.241 172.244C113.342 172.408 113.41 172.59 113.44 172.78Z" fill="white"/>
<path d="M107.525 173.62C107.549 173.909 107.486 174.198 107.346 174.451C107.205 174.705 106.992 174.911 106.734 175.043C106.477 175.175 106.186 175.229 105.898 175.195C105.61 175.162 105.338 175.045 105.117 174.857C104.896 174.67 104.736 174.421 104.656 174.143C104.577 173.864 104.581 173.568 104.67 173.292C104.759 173.016 104.927 172.773 105.154 172.593C105.381 172.413 105.656 172.304 105.945 172.28C106.332 172.248 106.716 172.371 107.012 172.623C107.309 172.874 107.493 173.233 107.525 173.62Z" fill="white"/>
<path d="M101.465 173.985C101.465 174.275 101.379 174.558 101.218 174.799C101.057 175.04 100.828 175.228 100.56 175.338C100.293 175.449 99.9984 175.478 99.7143 175.422C99.4301 175.365 99.169 175.226 98.9641 175.021C98.7593 174.816 98.6198 174.555 98.5633 174.271C98.5067 173.987 98.5358 173.692 98.6466 173.424C98.7575 173.157 98.9453 172.928 99.1862 172.767C99.4271 172.606 99.7104 172.52 100 172.52C100.388 172.52 100.761 172.674 101.036 172.949C101.311 173.224 101.465 173.596 101.465 173.985Z" fill="white"/>
<path d="M95.3898 173.85C95.3661 174.139 95.2574 174.414 95.0772 174.641C94.8971 174.868 94.6536 175.036 94.3778 175.125C94.1019 175.213 93.8059 175.218 93.5273 175.139C93.2487 175.059 93 174.899 92.8126 174.678C92.6252 174.457 92.5075 174.185 92.4744 173.897C92.4414 173.609 92.4943 173.318 92.6268 173.06C92.7592 172.803 92.9652 172.59 93.2185 172.449C93.4718 172.309 93.7611 172.246 94.0499 172.27C94.2418 172.285 94.429 172.338 94.6004 172.426C94.7718 172.513 94.9241 172.634 95.0487 172.781C95.1732 172.928 95.2676 173.098 95.3261 173.281C95.3847 173.465 95.4063 173.658 95.3898 173.85Z" fill="white"/>
<path d="M89.4448 173.25C89.3985 173.536 89.2683 173.802 89.0708 174.014C88.8733 174.226 88.6173 174.375 88.3352 174.442C88.0531 174.508 87.7578 174.49 87.4862 174.388C87.2147 174.287 86.9794 174.107 86.81 173.872C86.6406 173.637 86.5447 173.357 86.5346 173.067C86.5244 172.777 86.6004 172.491 86.753 172.245C86.9055 171.998 87.1277 171.803 87.3915 171.683C87.6553 171.562 87.9488 171.523 88.2349 171.57C88.4249 171.6 88.607 171.668 88.7708 171.769C88.9345 171.87 89.0767 172.002 89.1891 172.158C89.3016 172.315 89.382 172.491 89.4259 172.679C89.4698 172.866 89.4763 173.06 89.4448 173.25Z" fill="white"/>
<path d="M83.6452 172.185C83.5754 172.466 83.4238 172.72 83.2096 172.915C82.9954 173.11 82.7281 173.238 82.4417 173.281C82.1552 173.324 81.8624 173.281 81.6002 173.158C81.338 173.035 81.1182 172.837 80.9686 172.588C80.8191 172.34 80.7464 172.053 80.7599 171.764C80.7734 171.475 80.8724 171.196 81.0443 170.963C81.2163 170.729 81.4535 170.552 81.726 170.454C81.9985 170.356 82.294 170.34 82.5752 170.41C82.762 170.456 82.938 170.539 83.0929 170.653C83.2478 170.767 83.3787 170.911 83.478 171.076C83.5774 171.241 83.6433 171.423 83.672 171.614C83.7007 171.804 83.6915 171.998 83.6452 172.185Z" fill="white"/>
<path d="M78.0102 170.675C77.924 170.953 77.7572 171.199 77.5308 171.381C77.3044 171.564 77.0287 171.675 76.7389 171.701C76.4492 171.726 76.1584 171.665 75.9036 171.524C75.6489 171.384 75.4417 171.171 75.3085 170.912C75.1753 170.653 75.1222 170.361 75.1558 170.072C75.1894 169.783 75.3082 169.511 75.4971 169.289C75.6861 169.068 75.9366 168.908 76.2167 168.83C76.4969 168.752 76.794 168.759 77.0702 168.85C77.4348 168.97 77.7376 169.229 77.9134 169.57C78.0892 169.912 78.1239 170.308 78.0102 170.675Z" fill="white"/>
<path d="M72.5701 168.74C72.4569 169.007 72.2672 169.234 72.0248 169.393C71.7824 169.552 71.4983 169.635 71.2085 169.633C70.9187 169.63 70.6362 169.542 70.3966 169.379C70.1571 169.216 69.9713 168.985 69.8628 168.716C69.7543 168.448 69.7281 168.153 69.7873 167.869C69.8464 167.585 69.9884 167.325 70.1952 167.122C70.4021 166.919 70.6645 166.782 70.9492 166.728C71.234 166.675 71.5284 166.706 71.7951 166.82C71.9724 166.895 72.1332 167.004 72.2682 167.141C72.4032 167.278 72.5098 167.44 72.5818 167.619C72.6538 167.797 72.6899 167.988 72.6879 168.181C72.6859 168.373 72.6458 168.563 72.5701 168.74Z" fill="white"/>
<path d="M67.3052 166.4C67.1685 166.654 66.9599 166.862 66.7056 166.998C66.4513 167.133 66.1626 167.191 65.8756 167.164C65.5886 167.136 65.316 167.025 65.0922 166.843C64.8683 166.661 64.7029 166.418 64.6169 166.142C64.5309 165.867 64.5282 165.573 64.6088 165.296C64.6894 165.019 64.8498 164.772 65.0701 164.586C65.2903 164.4 65.5606 164.283 65.847 164.25C66.1335 164.217 66.4233 164.269 66.6802 164.4C66.8541 164.489 67.0086 164.611 67.1345 164.76C67.2605 164.909 67.3553 165.082 67.4136 165.268C67.4718 165.455 67.4922 165.651 67.4736 165.845C67.455 166.039 67.3977 166.228 67.3052 166.4Z" fill="white"/>
<path d="M62.2798 163.675C62.1287 163.923 61.9072 164.121 61.6433 164.243C61.3794 164.366 61.085 164.406 60.7978 164.361C60.5107 164.315 60.2436 164.185 60.0306 163.987C59.8176 163.789 59.6683 163.532 59.6018 163.249C59.5353 162.966 59.5546 162.67 59.6571 162.397C59.7596 162.125 59.9408 161.89 60.1776 161.721C60.4144 161.552 60.696 161.458 60.9867 161.45C61.2774 161.441 61.5639 161.52 61.8098 161.675C62.1358 161.879 62.3682 162.204 62.4562 162.578C62.5442 162.953 62.4807 163.347 62.2798 163.675Z" fill="white"/>
<path d="M57.4949 160.58C57.3233 160.813 57.0864 160.991 56.8141 161.089C56.5418 161.188 56.2465 161.204 55.9652 161.135C55.684 161.066 55.4294 160.915 55.2339 160.701C55.0384 160.488 54.9106 160.221 54.8666 159.935C54.8226 159.648 54.8644 159.356 54.9868 159.093C55.1092 158.831 55.3067 158.61 55.5542 158.46C55.8018 158.31 56.0882 158.236 56.3776 158.249C56.6669 158.261 56.9461 158.359 57.1798 158.53C57.3358 158.643 57.4679 158.786 57.5682 158.951C57.6686 159.116 57.7354 159.299 57.7647 159.489C57.7939 159.68 57.7851 159.874 57.7388 160.062C57.6925 160.249 57.6097 160.425 57.4949 160.58Z" fill="white"/>
<path d="M52.9751 157.135C52.7863 157.354 52.5368 157.513 52.2579 157.591C51.9791 157.669 51.6834 157.662 51.4083 157.572C51.1332 157.482 50.8909 157.312 50.7122 157.084C50.5334 156.857 50.4261 156.581 50.4038 156.293C50.3815 156.004 50.4451 155.715 50.5868 155.463C50.7285 155.21 50.9419 155.005 51.1998 154.874C51.4578 154.743 51.7489 154.691 52.0364 154.725C52.3239 154.759 52.5948 154.877 52.8151 155.065C53.1103 155.319 53.293 155.679 53.323 156.067C53.353 156.455 53.2279 156.839 52.9751 157.135Z" fill="white"/>
<path d="M47.695 153.785C48.5041 153.785 49.16 153.129 49.16 152.32C49.16 151.511 48.5041 150.855 47.695 150.855C46.8859 150.855 46.23 151.511 46.23 152.32C46.23 153.129 46.8859 153.785 47.695 153.785Z" fill="white"/>
<path d="M44.7902 149.265C44.5701 149.454 44.2991 149.573 44.0114 149.607C43.7236 149.642 43.4321 149.59 43.1737 149.459C42.9153 149.327 42.7017 149.123 42.5598 148.87C42.4179 148.617 42.3541 148.328 42.3765 148.039C42.3989 147.75 42.5064 147.475 42.6855 147.247C42.8647 147.019 43.1073 146.849 43.3828 146.76C43.6583 146.67 43.9543 146.664 44.2333 146.742C44.5123 146.82 44.7618 146.98 44.9502 147.2C45.2027 147.495 45.3277 147.878 45.2977 148.266C45.2677 148.653 45.0851 149.012 44.7902 149.265Z" fill="white"/>
<path d="M41.1701 144.885C40.9364 145.056 40.6573 145.154 40.368 145.166C40.0786 145.179 39.7921 145.105 39.5445 144.955C39.297 144.805 39.0995 144.584 38.9771 144.322C38.8547 144.059 38.8129 143.767 38.8569 143.48C38.9009 143.194 39.0286 142.927 39.2242 142.714C39.4197 142.5 39.6743 142.349 39.9555 142.28C40.2368 142.211 40.5321 142.227 40.8044 142.326C41.0766 142.424 41.3136 142.602 41.4852 142.835C41.7144 143.149 41.8098 143.541 41.7508 143.925C41.6918 144.309 41.483 144.654 41.1701 144.885Z" fill="white"/>
<path d="M37.8847 140.225C37.6384 140.379 37.3518 140.457 37.0613 140.448C36.7707 140.439 36.4893 140.344 36.253 140.174C36.0167 140.005 35.8362 139.769 35.7343 139.497C35.6325 139.225 35.6141 138.928 35.6812 138.645C35.7484 138.362 35.8983 138.106 36.1117 137.908C36.3251 137.711 36.5923 137.582 36.8795 137.536C37.1667 137.491 37.4609 137.533 37.7245 137.655C37.9881 137.778 38.2093 137.976 38.3598 138.225C38.5603 138.554 38.6229 138.948 38.5339 139.323C38.4449 139.697 38.2116 140.022 37.8847 140.225Z" fill="white"/>
<path d="M34.9599 135.31C34.7036 135.448 34.4121 135.506 34.1226 135.477C33.8332 135.449 33.5588 135.334 33.3344 135.149C33.11 134.964 32.9458 134.717 32.8628 134.438C32.7797 134.159 32.7814 133.862 32.8679 133.584C32.9543 133.306 33.1215 133.06 33.3481 132.878C33.5747 132.696 33.8505 132.585 34.1403 132.56C34.4301 132.535 34.7208 132.596 34.9754 132.737C35.23 132.878 35.437 133.091 35.5699 133.35C35.744 133.692 35.7776 134.088 35.6637 134.454C35.5497 134.82 35.2972 135.127 34.9599 135.31Z" fill="white"/>
<path d="M32.415 130.16C32.1482 130.272 31.8541 130.303 31.5699 130.248C31.2857 130.193 31.0242 130.055 30.8182 129.852C30.6123 129.649 30.4711 129.389 30.4126 129.105C30.3541 128.822 30.3809 128.528 30.4896 128.259C30.5983 127.991 30.784 127.761 31.0233 127.598C31.2626 127.435 31.5448 127.347 31.8342 127.344C32.1237 127.342 32.4073 127.425 32.6495 127.584C32.8917 127.742 33.0816 127.969 33.1951 128.235C33.2707 128.413 33.3106 128.603 33.3124 128.796C33.3141 128.989 33.2777 129.181 33.2052 129.36C33.1327 129.538 33.0256 129.701 32.89 129.839C32.7544 129.976 32.593 130.085 32.415 130.16Z" fill="white"/>
<path d="M30.265 124.785C29.9901 124.877 29.6941 124.886 29.4143 124.809C29.1346 124.733 28.8837 124.576 28.6935 124.357C28.5033 124.138 28.3825 123.867 28.3461 123.58C28.3097 123.292 28.3595 123 28.4892 122.741C28.6188 122.481 28.8225 122.266 29.0745 122.123C29.3265 121.979 29.6154 121.914 29.9046 121.935C30.1938 121.955 30.4703 122.062 30.6991 122.24C30.928 122.418 31.0989 122.66 31.1901 122.935C31.3107 123.303 31.2813 123.704 31.1081 124.05C30.9349 124.397 30.6318 124.661 30.265 124.785Z" fill="white"/>
<path d="M28.5298 119.215C28.2485 119.284 27.9532 119.267 27.6812 119.168C27.4091 119.069 27.1726 118.892 27.0014 118.658C26.8302 118.425 26.7319 118.146 26.7192 117.856C26.7064 117.567 26.7796 117.28 26.9296 117.033C27.0796 116.785 27.2997 116.587 27.5619 116.465C27.8242 116.342 28.1169 116.3 28.4031 116.343C28.6894 116.387 28.9563 116.514 29.1702 116.71C29.3841 116.905 29.5354 117.159 29.6049 117.44C29.6519 117.627 29.6612 117.822 29.6325 118.013C29.6038 118.203 29.5376 118.387 29.4377 118.552C29.3377 118.717 29.2059 118.86 29.0501 118.974C28.8943 119.088 28.7175 119.17 28.5298 119.215Z" fill="white"/>
<path d="M27.2349 113.46C26.9488 113.507 26.6553 113.468 26.3915 113.347C26.1277 113.227 25.9055 113.032 25.753 112.785C25.6004 112.539 25.5244 112.253 25.5346 111.963C25.5447 111.673 25.6406 111.393 25.81 111.158C25.9794 110.923 26.2147 110.743 26.4862 110.642C26.7578 110.54 27.0531 110.522 27.3352 110.588C27.6173 110.655 27.8733 110.804 28.0708 111.016C28.2683 111.228 28.3985 111.494 28.4448 111.78C28.4763 111.97 28.4698 112.164 28.4259 112.351C28.382 112.539 28.3016 112.715 28.1891 112.872C28.0767 113.028 27.9345 113.16 27.7708 113.261C27.607 113.362 27.4249 113.43 27.2349 113.46Z" fill="white"/>
<path d="M26.395 107.545C26.1062 107.569 25.8169 107.506 25.5636 107.366C25.3103 107.225 25.1045 107.012 24.972 106.755C24.8396 106.497 24.7865 106.206 24.8196 105.918C24.8526 105.63 24.9703 105.358 25.1577 105.137C25.3451 104.916 25.5938 104.756 25.8724 104.676C26.151 104.597 26.447 104.601 26.7229 104.69C26.9988 104.779 27.2422 104.947 27.4223 105.174C27.6025 105.401 27.7114 105.676 27.7351 105.965C27.7669 106.352 27.6435 106.736 27.3922 107.032C27.1409 107.329 26.7822 107.513 26.395 107.545Z" fill="white"/>
<path d="M26.0298 101.48C25.7401 101.48 25.4569 101.394 25.216 101.233C24.9751 101.072 24.7873 100.843 24.6764 100.576C24.5655 100.308 24.5365 100.013 24.5931 99.729C24.6496 99.4448 24.789 99.1838 24.9939 98.9789C25.1988 98.774 25.4599 98.6345 25.7441 98.5779C26.0282 98.5214 26.3228 98.5504 26.5905 98.6613C26.8582 98.7722 27.087 98.96 27.248 99.2009C27.4089 99.4418 27.4949 99.725 27.4949 100.015C27.4949 100.404 27.3406 100.776 27.0658 101.051C26.7911 101.326 26.4184 101.48 26.0298 101.48Z" fill="white"/>
<path d="M26.1601 95.4099C25.871 95.3871 25.5952 95.2791 25.3676 95.0994C25.14 94.9198 24.9707 94.6766 24.8814 94.4008C24.792 94.1249 24.7865 93.8287 24.8656 93.5497C24.9448 93.2707 25.1049 93.0215 25.3257 92.8336C25.5466 92.6457 25.8183 92.5275 26.1064 92.4941C26.3944 92.4607 26.6859 92.5136 26.9439 92.6459C27.2019 92.7783 27.4149 92.9843 27.5557 93.2378C27.6966 93.4913 27.759 93.7809 27.7352 94.0699C27.7033 94.4561 27.5196 94.814 27.2244 95.0652C26.9292 95.3163 26.5465 95.4403 26.1601 95.4099Z" fill="white"/>
<path d="M26.7649 89.4649C26.4788 89.4186 26.2129 89.2884 26.0008 89.0909C25.7887 88.8934 25.6399 88.6374 25.5733 88.3553C25.5067 88.0732 25.5254 87.7778 25.6267 87.5062C25.7281 87.2347 25.9078 86.9994 26.143 86.83C26.3782 86.6606 26.6583 86.5648 26.9479 86.5546C27.2376 86.5445 27.5237 86.6205 27.7702 86.7731C28.0166 86.9256 28.2123 87.1478 28.3324 87.4116C28.4526 87.6754 28.4917 87.9688 28.445 88.2549C28.3824 88.638 28.1704 88.9806 27.8554 89.2075C27.5404 89.4344 27.1481 89.5269 26.7649 89.4649Z" fill="white"/>
<path d="M27.83 83.665C27.5489 83.5955 27.2947 83.4442 27.0995 83.2303C26.9043 83.0164 26.777 82.7495 26.7334 82.4633C26.6899 82.177 26.7321 81.8843 26.8548 81.622C26.9775 81.3597 27.1751 81.1397 27.4228 80.9897C27.6704 80.8397 27.957 80.7665 28.2462 80.7792C28.5355 80.792 28.8145 80.8902 29.048 81.0614C29.2815 81.2327 29.459 81.4692 29.5581 81.7413C29.6573 82.0134 29.6736 82.3087 29.605 82.59C29.5593 82.7773 29.4771 82.9537 29.3631 83.1092C29.2491 83.2646 29.1055 83.3961 28.9406 83.4959C28.7757 83.5958 28.5927 83.6621 28.4021 83.6911C28.2115 83.7201 28.0171 83.7113 27.83 83.665Z" fill="white"/>
<path d="M29.3399 78.025C29.0647 77.9337 28.8227 77.7629 28.6446 77.5341C28.4665 77.3052 28.3605 77.0286 28.3397 76.7394C28.3189 76.4502 28.3843 76.1614 28.5278 75.9094C28.6713 75.6574 28.8864 75.4537 29.1457 75.324C29.4051 75.1944 29.697 75.1446 29.9847 75.181C30.2724 75.2173 30.5428 75.3383 30.7617 75.5284C30.9806 75.7186 31.1381 75.9694 31.2143 76.2492C31.2905 76.529 31.282 76.825 31.1899 77.1C31.0667 77.4676 30.8028 77.7713 30.456 77.9447C30.1092 78.1181 29.7079 78.1469 29.3399 78.025Z" fill="white"/>
<path d="M31.2751 72.5752C31.0082 72.4624 30.7808 72.2731 30.6215 72.0311C30.4623 71.789 30.3784 71.5052 30.3804 71.2155C30.3825 70.9258 30.4703 70.6432 30.6329 70.4034C30.7955 70.1637 31.0256 69.9775 31.294 69.8684C31.5624 69.7594 31.8571 69.7324 32.1408 69.7908C32.4246 69.8493 32.6846 69.9905 32.8881 70.1967C33.0916 70.403 33.2294 70.6649 33.284 70.9494C33.3387 71.2339 33.3078 71.5283 33.1951 71.7952C33.1203 71.9725 33.0113 72.1333 32.8743 72.2685C32.7373 72.4037 32.5751 72.5105 32.3968 72.583C32.2185 72.6554 32.0276 72.692 31.8352 72.6907C31.6427 72.6893 31.4524 72.6501 31.2751 72.5752Z" fill="white"/>
<path d="M33.6148 67.3498C33.3576 67.2163 33.1457 67.0095 33.006 66.7556C32.8664 66.5017 32.8052 66.2121 32.8301 65.9234C32.8551 65.6347 32.965 65.3599 33.1462 65.1338C33.3273 64.9076 33.5714 64.7402 33.8477 64.6527C34.124 64.5653 34.4199 64.5618 34.6982 64.6426C34.9764 64.7234 35.2245 64.8849 35.4109 65.1067C35.5974 65.3285 35.714 65.6006 35.7458 65.8886C35.7776 66.1766 35.7233 66.4676 35.5898 66.7248C35.4107 67.0695 35.102 67.329 34.7316 67.4462C34.3612 67.5634 33.9596 67.5287 33.6148 67.3498Z" fill="white"/>
<path d="M36.3401 62.3002C36.0914 62.1496 35.8932 61.9285 35.7705 61.6649C35.6479 61.4013 35.6065 61.1071 35.6515 60.8199C35.6966 60.5327 35.8261 60.2654 36.0236 60.052C36.221 59.8387 36.4776 59.6888 36.7604 59.6217C37.0433 59.5545 37.3397 59.573 37.612 59.6748C37.8843 59.7766 38.1201 59.9572 38.2895 60.1934C38.4589 60.4297 38.5541 60.711 38.5631 61.0016C38.5722 61.2922 38.4945 61.5789 38.3401 61.8252C38.1358 62.1511 37.8116 62.3835 37.4374 62.4724C37.0632 62.5612 36.6691 62.4994 36.3401 62.3002Z" fill="white"/>
<path d="M39.4351 57.5149C39.2018 57.3433 39.0246 57.1065 38.9258 56.8342C38.827 56.562 38.8111 56.2665 38.8802 55.9853C38.9492 55.704 39.1001 55.4495 39.3137 55.254C39.5274 55.0584 39.7942 54.9306 40.0805 54.8866C40.3667 54.8426 40.6595 54.8845 40.922 55.0068C41.1845 55.1292 41.4049 55.3267 41.5552 55.5742C41.7055 55.8218 41.7791 56.1083 41.7666 56.3977C41.7542 56.687 41.6562 56.9662 41.4851 57.1999C41.2537 57.5117 40.9086 57.7196 40.5248 57.7785C40.141 57.8375 39.7495 57.7428 39.4351 57.5149Z" fill="white"/>
<path d="M42.8803 52.9901C42.6613 52.8008 42.5031 52.5509 42.426 52.2718C42.3489 51.9928 42.3562 51.6971 42.447 51.4222C42.5377 51.1473 42.7079 50.9055 42.936 50.7272C43.1641 50.5489 43.44 50.4423 43.7287 50.4206C44.0174 50.399 44.3061 50.4634 44.5582 50.6057C44.8103 50.748 45.0145 50.9619 45.1452 51.2202C45.2759 51.4785 45.3273 51.7698 45.2926 52.0572C45.2578 52.3446 45.1387 52.6153 44.9503 52.8351C44.696 53.1296 44.3354 53.3113 43.9473 53.3404C43.5593 53.3694 43.1756 53.2435 42.8803 52.9901Z" fill="white"/>
<path d="M46.6599 48.7498C46.4548 48.545 46.315 48.284 46.2583 47.9997C46.2016 47.7155 46.2304 47.4208 46.3412 47.1529C46.452 46.8851 46.6398 46.6561 46.8807 46.4951C47.1217 46.334 47.4051 46.248 47.6949 46.248C47.9848 46.248 48.2682 46.334 48.5091 46.4951C48.7501 46.6561 48.9379 46.8851 49.0487 47.1529C49.1595 47.4208 49.1883 47.7155 49.1316 47.9997C49.0748 48.284 48.9351 48.545 48.73 48.7498C48.4553 49.024 48.083 49.178 47.6949 49.178C47.3068 49.178 46.9346 49.024 46.6599 48.7498Z" fill="white"/>
<path d="M50.7501 44.8102C50.5609 44.5906 50.4411 44.3198 50.4059 44.0322C50.3707 43.7445 50.4216 43.4528 50.5522 43.1941C50.6827 42.9354 50.8871 42.7212 51.1395 42.5787C51.3918 42.4361 51.6808 42.3716 51.9698 42.3933C52.2588 42.415 52.5348 42.5219 52.763 42.7005C52.9912 42.8791 53.1614 43.1214 53.2519 43.3967C53.3424 43.6721 53.3492 43.9681 53.2714 44.2472C53.1937 44.5264 53.0348 44.7763 52.815 44.9652C52.5168 45.2097 52.136 45.3301 51.7515 45.3012C51.367 45.2723 51.0084 45.0965 50.7501 44.8102Z" fill="white"/>
<path d="M55.135 41.1852C54.9633 40.9516 54.8648 40.6723 54.852 40.3827C54.8391 40.0931 54.9124 39.8061 55.0626 39.5582C55.2129 39.3103 55.4333 39.1125 55.6961 38.9899C55.9588 38.8673 56.2519 38.8255 56.5385 38.8696C56.825 38.9137 57.092 39.0419 57.3057 39.2378C57.5193 39.4338 57.6701 39.6887 57.7388 39.9704C57.8075 40.252 57.791 40.5478 57.6916 40.8201C57.5921 41.0924 57.4141 41.3291 57.1801 41.5002C57.0253 41.6142 56.8494 41.6965 56.6627 41.7423C56.476 41.7882 56.2822 41.7967 56.0922 41.7675C55.9022 41.7382 55.7198 41.6717 55.5556 41.5718C55.3913 41.4718 55.2484 41.3405 55.135 41.1852Z" fill="white"/>
<path d="M59.79 37.905C59.6348 37.6591 59.5563 37.3725 59.5645 37.0819C59.5727 36.7912 59.6674 36.5095 59.8362 36.2728C60.005 36.036 60.2403 35.8548 60.5125 35.7523C60.7846 35.6497 61.081 35.6305 61.364 35.697C61.6471 35.7636 61.904 35.9128 62.102 36.1258C62.2999 36.3388 62.4301 36.6059 62.4757 36.8931C62.5214 37.1803 62.4806 37.4746 62.3584 37.7385C62.2363 38.0024 62.0384 38.2239 61.79 38.375C61.4612 38.5733 61.068 38.6352 60.6942 38.5474C60.3205 38.4596 59.9959 38.229 59.79 37.905Z" fill="white"/>
<path d="M64.7049 34.9801C64.5713 34.723 64.517 34.432 64.5489 34.1439C64.5807 33.8559 64.6971 33.5838 64.8836 33.362C65.0701 33.1402 65.3182 32.9787 65.5965 32.8979C65.8747 32.8171 66.1707 32.8207 66.4469 32.9081C66.7232 32.9955 66.9673 33.1629 67.1485 33.3891C67.3296 33.6153 67.4396 33.8901 67.4645 34.1788C67.4894 34.4675 67.4282 34.7571 67.2885 35.011C67.1488 35.2648 66.937 35.4716 66.6798 35.6051C66.3348 35.7827 65.9335 35.8167 65.5635 35.6996C65.1935 35.5825 64.8849 35.3239 64.7049 34.9801Z" fill="white"/>
<path d="M69.8599 32.43C69.7473 32.163 69.7162 31.8687 69.7709 31.5842C69.8255 31.2997 69.9633 31.0378 70.1668 30.8316C70.3702 30.6253 70.6303 30.484 70.9141 30.4256C71.1978 30.3672 71.4926 30.3942 71.761 30.5032C72.0294 30.6123 72.2595 30.7985 72.4221 31.0382C72.5847 31.278 72.6726 31.5606 72.6746 31.8503C72.6766 32.14 72.5926 32.4238 72.4334 32.6658C72.2741 32.9079 72.0467 33.0972 71.7798 33.21C71.6025 33.2849 71.4123 33.3241 71.2199 33.3255C71.0274 33.3268 70.8365 33.2902 70.6582 33.2178C70.4799 33.1453 70.3177 33.0385 70.1807 32.9033C70.0437 32.7682 69.9347 32.6073 69.8599 32.43Z" fill="white"/>
<path d="M75.2303 30.2851C75.1381 30.0102 75.1296 29.7141 75.2059 29.4343C75.2821 29.1546 75.4396 28.9037 75.6585 28.7135C75.8774 28.5234 76.1478 28.4025 76.4355 28.3661C76.7231 28.3297 77.0151 28.3795 77.2745 28.5091C77.5338 28.6388 77.7489 28.8425 77.8924 29.0945C78.0359 29.3465 78.1013 29.6354 78.0805 29.9246C78.0597 30.2138 77.9536 30.4903 77.7756 30.7192C77.5975 30.948 77.3555 31.1188 77.0802 31.2101C76.7122 31.3307 76.3114 31.3012 75.965 31.128C75.6186 30.9548 75.3546 30.6519 75.2303 30.2851Z" fill="white"/>
<path d="M80.8002 28.5498C80.7306 28.2686 80.746 27.973 80.8444 27.7005C80.9428 27.428 81.1197 27.1908 81.3528 27.0189C81.586 26.8469 81.8649 26.748 82.1543 26.7345C82.4437 26.721 82.7306 26.7937 82.9787 26.9433C83.2268 27.0928 83.425 27.3126 83.5483 27.5748C83.6715 27.837 83.7141 28.1298 83.6709 28.4163C83.6278 28.7028 83.5006 28.97 83.3056 29.1842C83.1105 29.3984 82.8564 29.55 82.5752 29.6198C82.3884 29.6661 82.1943 29.6753 82.0039 29.6466C81.8136 29.6179 81.6308 29.552 81.466 29.4526C81.3011 29.3532 81.1575 29.2224 81.0432 29.0674C80.929 28.9125 80.8464 28.7366 80.8002 28.5498Z" fill="white"/>
<path d="M86.5699 27.2548C86.5232 26.9688 86.5623 26.6753 86.6825 26.4115C86.8026 26.1477 86.9983 25.9255 87.2447 25.773C87.4912 25.6204 87.7773 25.5444 88.067 25.5546C88.3566 25.5647 88.6367 25.6605 88.8719 25.8299C89.1071 25.9993 89.2867 26.2346 89.3881 26.5062C89.4895 26.7777 89.5082 27.0732 89.4416 27.3552C89.375 27.6373 89.2262 27.8933 89.0141 28.0908C88.802 28.2883 88.5361 28.4185 88.25 28.4648C87.8668 28.5268 87.4745 28.4343 87.1595 28.2074C86.8445 27.9805 86.6325 27.6379 86.5699 27.2548Z" fill="white"/>
<path d="M92.4698 26.4152C92.4461 26.1264 92.5084 25.8371 92.6491 25.5838C92.7898 25.3305 93.0025 25.1246 93.2602 24.9921C93.5179 24.8597 93.8092 24.8066 94.097 24.8397C94.3849 24.8727 94.6564 24.9904 94.8774 25.1778C95.0984 25.3653 95.2589 25.614 95.3385 25.8926C95.4181 26.1712 95.4133 26.4672 95.3247 26.743C95.2361 27.0189 95.0677 27.2623 94.8408 27.4425C94.6139 27.6227 94.3386 27.7315 94.0498 27.7552C93.6626 27.787 93.2786 27.6637 92.9823 27.4124C92.686 27.1611 92.5017 26.8024 92.4698 26.4152Z" fill="white"/>
<path d="M98.5347 26.0499C98.5347 25.7602 98.6207 25.4769 98.7817 25.236C98.9426 24.9951 99.1714 24.8073 99.4391 24.6964C99.7068 24.5856 100.002 24.5565 100.286 24.6131C100.57 24.6696 100.831 24.8091 101.036 25.014C101.241 25.2189 101.38 25.4799 101.437 25.7641C101.493 26.0483 101.464 26.3428 101.353 26.6105C101.243 26.8782 101.055 27.107 100.814 27.268C100.573 27.429 100.29 27.5149 99.9998 27.5149C99.6113 27.5149 99.2385 27.3606 98.9638 27.0858C98.689 26.8111 98.5347 26.4385 98.5347 26.0499Z" fill="white"/>
<path d="M104.605 26.1751C104.629 25.8863 104.737 25.611 104.918 25.3841C105.098 25.1572 105.341 24.9888 105.617 24.9002C105.893 24.8116 106.189 24.8068 106.468 24.8864C106.746 24.966 106.995 25.1265 107.182 25.3474C107.37 25.5684 107.487 25.84 107.521 26.1279C107.554 26.4158 107.501 26.707 107.368 26.9647C107.236 27.2224 107.03 27.435 106.776 27.5757C106.523 27.7164 106.234 27.7788 105.945 27.7551C105.558 27.7232 105.199 27.5389 104.948 27.2426C104.696 26.9463 104.573 26.5623 104.605 26.1751Z" fill="white"/>
<path d="M110.57 26.7801C110.617 26.4944 110.748 26.2291 110.946 26.0177C111.144 25.8064 111.4 25.6584 111.682 25.5925C111.964 25.5267 112.259 25.5459 112.53 25.6477C112.801 25.7495 113.036 25.9294 113.205 26.1646C113.374 26.3998 113.47 26.6798 113.479 26.9693C113.489 27.2587 113.413 27.5445 113.261 27.7907C113.108 28.0369 112.886 28.2323 112.623 28.3524C112.359 28.4724 112.066 28.5116 111.78 28.4651C111.396 28.4013 111.054 28.1882 110.827 27.8724C110.6 27.5566 110.508 27.1639 110.57 26.7801Z" fill="white"/>
<path d="M116.35 27.8499C116.419 27.5683 116.569 27.3135 116.783 27.1175C116.996 26.9216 117.263 26.7934 117.55 26.7491C117.836 26.7048 118.129 26.7465 118.392 26.8689C118.654 26.9912 118.875 27.1887 119.025 27.4364C119.176 27.6841 119.25 27.9709 119.237 28.2604C119.224 28.55 119.126 28.8293 118.955 29.063C118.784 29.2968 118.547 29.4744 118.274 29.5735C118.002 29.6727 117.706 29.6888 117.425 29.6199C117.048 29.5264 116.724 29.2879 116.523 28.9563C116.321 28.6248 116.259 28.2271 116.35 27.8499Z" fill="white"/>
<path d="M121.99 29.3501C122.082 29.0754 122.253 28.8342 122.483 28.6569C122.712 28.4797 122.988 28.3743 123.277 28.3541C123.566 28.334 123.855 28.3999 124.106 28.5437C124.358 28.6875 124.561 28.9026 124.69 29.1618C124.819 29.4211 124.869 29.7128 124.832 30.0002C124.796 30.2876 124.675 30.5577 124.485 30.7763C124.295 30.995 124.044 31.1525 123.765 31.2288C123.486 31.3051 123.19 31.2969 122.915 31.2051C122.732 31.1441 122.564 31.0477 122.418 30.9215C122.273 30.7952 122.154 30.6416 122.068 30.4693C121.982 30.297 121.931 30.1095 121.918 29.9175C121.904 29.7254 121.929 29.5326 121.99 29.3501Z" fill="white"/>
<path d="M127.44 31.2898C127.553 31.0229 127.742 30.7955 127.984 30.6362C128.226 30.477 128.51 30.393 128.8 30.3951C129.089 30.3971 129.372 30.4849 129.612 30.6475C129.852 30.8101 130.038 31.0402 130.147 31.3086C130.256 31.577 130.283 31.8718 130.224 32.1555C130.166 32.4393 130.025 32.6993 129.818 32.9028C129.612 33.1063 129.35 33.2441 129.066 33.2987C128.781 33.3534 128.487 33.3224 128.22 33.2098C128.043 33.135 127.882 33.026 127.747 32.889C127.611 32.752 127.505 32.5897 127.432 32.4114C127.36 32.2331 127.323 32.0423 127.324 31.8498C127.326 31.6574 127.365 31.4671 127.44 31.2898Z" fill="white"/>
<path d="M132.69 33.6299C132.827 33.376 133.035 33.1682 133.29 33.0323C133.544 32.8964 133.833 32.8386 134.12 32.8661C134.407 32.8936 134.679 33.0052 134.903 33.1869C135.127 33.3686 135.292 33.6123 135.378 33.8875C135.464 34.1627 135.467 34.4571 135.386 34.734C135.306 35.0108 135.145 35.2577 134.925 35.4437C134.705 35.6298 134.434 35.7466 134.148 35.7798C133.862 35.8129 133.572 35.7607 133.315 35.6299C133.141 35.5413 132.987 35.4188 132.861 35.2697C132.735 35.1205 132.64 34.9477 132.582 34.7614C132.523 34.5751 132.503 34.379 132.521 34.1847C132.54 33.9904 132.597 33.8018 132.69 33.6299Z" fill="white"/>
<path d="M137.715 36.3498C137.866 36.1011 138.087 35.9029 138.35 35.7802C138.614 35.6576 138.908 35.6162 139.195 35.6613C139.482 35.7064 139.75 35.8358 139.963 36.0333C140.176 36.2307 140.326 36.4872 140.393 36.7701C140.461 37.0529 140.442 37.3493 140.34 37.6216C140.238 37.894 140.058 38.1298 139.822 38.2992C139.585 38.4686 139.304 38.5639 139.014 38.5729C138.723 38.5819 138.436 38.5042 138.19 38.3498C137.865 38.1446 137.633 37.8204 137.545 37.4466C137.456 37.0728 137.517 36.6791 137.715 36.3498Z" fill="white"/>
<path d="M142.5 39.4549C142.671 39.2209 142.908 39.0428 143.18 38.9434C143.452 38.8439 143.748 38.8275 144.03 38.8962C144.311 38.9649 144.566 39.1156 144.762 39.3293C144.958 39.5429 145.086 39.8099 145.13 40.0964C145.175 40.383 145.133 40.6762 145.01 40.9389C144.888 41.2016 144.69 41.4221 144.442 41.5723C144.194 41.7226 143.907 41.7959 143.617 41.783C143.328 41.7701 143.049 41.6716 142.815 41.4999C142.502 41.2702 142.294 40.9259 142.235 40.5425C142.176 40.1592 142.271 39.768 142.5 39.4549Z" fill="white"/>
<path d="M147.025 42.9002C147.214 42.6804 147.464 42.5216 147.743 42.4438C148.022 42.3661 148.318 42.3729 148.593 42.4634C148.869 42.5538 149.111 42.724 149.29 42.9522C149.468 43.1804 149.575 43.4565 149.597 43.7455C149.618 44.0345 149.554 44.3234 149.411 44.5757C149.269 44.828 149.055 45.0324 148.796 45.163C148.537 45.2936 148.246 45.3445 147.958 45.3093C147.67 45.2741 147.399 45.1543 147.18 44.9652C146.886 44.7118 146.704 44.352 146.675 43.9648C146.646 43.5776 146.772 43.1947 147.025 42.9002Z" fill="white"/>
<path d="M151.265 46.68C151.47 46.4748 151.731 46.3351 152.015 46.2783C152.299 46.2216 152.594 46.2504 152.862 46.3612C153.13 46.4721 153.359 46.6598 153.52 46.9008C153.681 47.1418 153.767 47.4251 153.767 47.715C153.767 48.0048 153.681 48.2882 153.52 48.5292C153.359 48.7701 153.13 48.9579 152.862 49.0687C152.594 49.1795 152.299 49.2084 152.015 49.1516C151.731 49.0949 151.47 48.9551 151.265 48.75C151.129 48.6143 151.02 48.453 150.947 48.2754C150.873 48.0978 150.835 47.9073 150.835 47.715C150.835 47.5226 150.873 47.3322 150.947 47.1545C151.02 46.9769 151.129 46.8156 151.265 46.68Z" fill="white"/>
<path d="M155.205 50.7648C155.423 50.5761 155.693 50.4562 155.979 50.4201C156.266 50.3841 156.556 50.4334 156.815 50.562C157.073 50.6906 157.288 50.8927 157.432 51.1429C157.576 51.3931 157.643 51.6802 157.624 51.9683C157.606 52.2564 157.502 52.5326 157.327 52.7621C157.152 52.9916 156.913 53.1644 156.64 53.2585C156.367 53.3527 156.073 53.3641 155.793 53.2914C155.514 53.2187 155.262 53.0651 155.07 52.8498C154.941 52.7045 154.842 52.535 154.779 52.3513C154.716 52.1675 154.69 51.973 154.703 51.7792C154.715 51.5853 154.766 51.3958 154.852 51.2217C154.938 51.0476 155.058 50.8923 155.205 50.7648Z" fill="white"/>
<path d="M158.83 55.1501C159.064 54.979 159.343 54.8811 159.632 54.8686C159.922 54.8561 160.208 54.9297 160.456 55.08C160.703 55.2303 160.901 55.4506 161.023 55.7131C161.145 55.9756 161.187 56.2685 161.143 56.5547C161.099 56.841 160.971 57.1078 160.776 57.3214C160.58 57.535 160.326 57.6859 160.045 57.755C159.763 57.824 159.468 57.8082 159.196 57.7094C158.923 57.6107 158.687 57.4334 158.515 57.2001C158.4 57.0451 158.317 56.8689 158.271 56.6817C158.225 56.4945 158.216 56.3 158.245 56.1094C158.274 55.9188 158.341 55.7359 158.442 55.5712C158.542 55.4066 158.674 55.2634 158.83 55.1501Z" fill="white"/>
<path d="M162.11 59.8101C162.356 59.6549 162.642 59.5764 162.933 59.5846C163.224 59.5928 163.505 59.6874 163.742 59.8562C163.979 60.025 164.16 60.2604 164.263 60.5325C164.365 60.8046 164.384 61.1011 164.318 61.3842C164.251 61.6673 164.102 61.9242 163.889 62.1221C163.676 62.3201 163.409 62.4502 163.122 62.4958C162.835 62.5415 162.54 62.5007 162.277 62.3786C162.013 62.2565 161.791 62.0586 161.64 61.8101C161.44 61.4817 161.378 61.088 161.466 60.7139C161.554 60.3398 161.785 60.0152 162.11 59.8101Z" fill="white"/>
<path d="M165.035 64.725C165.292 64.5941 165.582 64.542 165.868 64.5751C166.154 64.6082 166.425 64.7251 166.645 64.9111C166.865 65.0972 167.026 65.3441 167.106 65.6209C167.187 65.8977 167.184 66.1922 167.098 66.4674C167.012 66.7426 166.847 66.9863 166.623 67.168C166.399 67.3496 166.127 67.4612 165.84 67.4887C165.553 67.5162 165.264 67.4584 165.009 67.3226C164.755 67.1867 164.547 66.9788 164.41 66.725C164.317 66.5533 164.259 66.3646 164.24 66.1701C164.221 65.9756 164.241 65.7793 164.299 65.5928C164.358 65.4063 164.453 65.2334 164.579 65.0843C164.706 64.9352 164.86 64.813 165.035 64.725Z" fill="white"/>
<path d="M167.57 69.875C167.837 69.7624 168.131 69.7314 168.416 69.7861C168.7 69.8407 168.962 69.9785 169.168 70.182C169.375 70.3855 169.516 70.6455 169.574 70.9293C169.633 71.213 169.606 71.5078 169.497 71.7762C169.388 72.0446 169.201 72.2746 168.962 72.4372C168.722 72.5999 168.439 72.6877 168.15 72.6897C167.86 72.6918 167.576 72.6078 167.334 72.4486C167.092 72.2893 166.903 72.0619 166.79 71.795C166.64 71.4368 166.638 71.0339 166.784 70.6742C166.93 70.3144 167.213 70.0271 167.57 69.875Z" fill="white"/>
<path d="M169.73 75.2449C170.005 75.1531 170.301 75.1449 170.58 75.2212C170.859 75.2975 171.11 75.455 171.3 75.6736C171.49 75.8923 171.611 76.1624 171.647 76.4498C171.684 76.7372 171.634 77.0289 171.505 77.2882C171.376 77.5474 171.173 77.7625 170.921 77.9063C170.67 78.05 170.381 78.116 170.092 78.0959C169.803 78.0757 169.527 77.9703 169.297 77.7931C169.068 77.6158 168.897 77.3746 168.805 77.0999C168.744 76.9174 168.719 76.7245 168.733 76.5325C168.746 76.3405 168.797 76.153 168.883 75.9807C168.969 75.8084 169.088 75.6548 169.233 75.5285C169.379 75.4023 169.547 75.3059 169.73 75.2449Z" fill="white"/>
<path d="M171.465 80.82C171.746 80.7501 172.042 80.7653 172.315 80.8637C172.588 80.962 172.825 81.1392 172.997 81.3726C173.169 81.606 173.268 81.8852 173.281 82.1748C173.295 82.4645 173.222 82.7516 173.072 82.9998C172.922 83.2479 172.701 83.446 172.439 83.5689C172.176 83.6917 171.883 83.7339 171.596 83.69C171.31 83.6462 171.042 83.5182 170.829 83.3224C170.615 83.1266 170.464 82.8716 170.395 82.59C170.303 82.2134 170.364 81.8158 170.564 81.484C170.765 81.1522 171.089 80.9134 171.465 80.82Z" fill="white"/>
<path d="M172.76 86.5748C173.046 86.5281 173.34 86.5672 173.603 86.6873C173.867 86.8075 174.089 87.0031 174.242 87.2496C174.394 87.496 174.47 87.7822 174.46 88.0718C174.45 88.3615 174.354 88.6416 174.185 88.8768C174.015 89.112 173.78 89.2917 173.509 89.3931C173.237 89.4945 172.942 89.513 172.66 89.4464C172.378 89.3798 172.121 89.2311 171.924 89.0189C171.726 88.8068 171.596 88.5409 171.55 88.2548C171.488 87.8716 171.581 87.4794 171.807 87.1644C172.034 86.8494 172.377 86.6374 172.76 86.5748Z" fill="white"/>
<path d="M173.6 92.4898C173.889 92.466 174.178 92.5284 174.431 92.6691C174.685 92.8098 174.891 93.0225 175.023 93.2802C175.156 93.5379 175.209 93.8291 175.175 94.117C175.142 94.4048 175.025 94.6764 174.837 94.8974C174.65 95.1184 174.401 95.2788 174.123 95.3585C173.844 95.4381 173.548 95.4333 173.272 95.3447C172.996 95.2561 172.753 95.0877 172.573 94.8607C172.393 94.6338 172.284 94.3585 172.26 94.0698C172.228 93.6826 172.352 93.2986 172.603 93.0023C172.854 92.706 173.213 92.5216 173.6 92.4898Z" fill="white"/>
<path d="M100 180.08C55.8501 180.08 19.9351 144.165 19.9351 100.015C19.9351 55.8651 55.8501 19.9551 100 19.9551C144.15 19.9551 180.07 55.8501 180.07 100.015C180.07 144.18 144.145 180.08 100 180.08ZM100 22.3651C57.1802 22.3651 22.3451 57.2001 22.3451 100.015C22.3451 142.83 57.1802 177.67 100 177.67C142.82 177.67 177.65 142.835 177.65 100.015C177.65 57.1951 142.815 22.3501 100 22.3501V22.3651Z" fill="white"/>
<path d="M99.9999 170.35C61.21 170.35 29.6499 138.795 29.6499 99.9999C29.6499 61.2049 61.21 29.6499 99.9999 29.6499C138.79 29.6499 170.35 61.2099 170.35 99.9999C170.35 138.79 138.79 170.35 99.9999 170.35ZM99.9999 32.0599C62.535 32.0599 32.0599 62.5599 32.0599 99.9999C32.0599 137.44 62.535 167.94 99.9999 167.94C137.465 167.94 167.94 137.44 167.94 99.9999C167.94 62.5599 137.46 32.0749 99.9999 32.0749V32.0599Z" fill="white"/>
<path d="M112.655 87.365L100 9.125V100.015L112.655 87.365Z" fill="white"/>
<path d="M100 100.015V9.125L87.3452 87.365L100 100.015Z" fill="black"/>
<path d="M190.89 100.015L112.655 87.3652L100 100.015H190.89Z" fill="black"/>
<path d="M100 100.015L112.655 112.67L190.89 100.015H100Z" fill="white"/>
<path d="M100 100.015L87.3502 112.67H87.3452L100 190.905V100.015Z" fill="white"/>
<path d="M100 190.905L112.655 112.67L100 100.015V190.905Z" fill="black"/>
<path d="M99.9999 100.015H9.10986L87.3449 112.67L99.9999 100.015Z" fill="black"/>
<path d="M99.9999 100.015L87.3449 87.3652L9.10986 100.015H99.9999Z" fill="white"/>
<path d="M100 102.075L85.79 87.85L100 0L114.205 87.85L100 102.075ZM88.9 86.85L100 97.95L111.095 86.85L100 18.225L88.9 86.85Z" fill="white"/>
<path d="M112.15 114.225L97.9399 100.015L112.15 85.8101L200 100.015L112.15 114.225ZM102.07 100.015L113.17 111.115L181.795 100.015L113.17 88.9201L102.07 100.015Z" fill="white"/>
<path d="M100 200.015L85.79 112.165L100 97.96L114.205 112.165L100 200.015ZM88.9 113.17L100 181.8L111.095 113.17L100 102.075L88.9 113.17Z" fill="white"/>
<path d="M87.85 114.225L0 100.015L87.85 85.8101L102.07 100.015L87.85 114.225ZM18.215 100.015L86.845 111.115L97.94 100.015L86.845 88.9201L18.215 100.015Z" fill="white"/>
<path d="M111.455 100.015L141.15 58.8652L100 100.015H111.455Z" fill="white"/>
<path d="M100 100.015L141.15 58.8652L100 88.5602V100.015Z" fill="black"/>
<path d="M141.15 141.165L111.455 100.015H100L141.15 141.165Z" fill="black"/>
<path d="M100 100.015V111.47L141.15 141.165L100 100.015Z" fill="white"/>
<path d="M100 100.015H88.5451L58.8501 141.165L100 100.015Z" fill="white"/>
<path d="M58.8501 141.165L100 111.47V100.015L58.8501 141.165Z" fill="black"/>
<path d="M100 100.015L58.8501 58.8652L88.5451 100.015H100Z" fill="black"/>
<path d="M100 100.015V88.5602L58.8501 58.8652L100 100.015Z" fill="white"/>
<path d="M112.2 101.47H98.5698V87.8148L147.57 52.4248L112.2 101.47ZM101.455 98.5598H110.71L134.71 65.3098L101.46 89.3098L101.455 98.5598Z" fill="white"/>
<path d="M147.57 147.605L98.5698 112.215V98.5649H112.225L147.57 147.605ZM101.435 110.73L134.685 134.73L110.685 101.475H101.43L101.435 110.73Z" fill="white"/>
<path d="M52.4102 147.605L87.8002 98.5601H101.455V112.215L52.4102 147.605ZM89.2852 101.47L65.2852 134.725L98.5402 110.725V101.47H89.2852Z" fill="white"/>
<path d="M87.8002 101.47L52.4102 52.4248L101.455 87.8148V101.47H87.8002ZM65.3002 65.3098L89.3002 98.5648H98.5702V89.3048L65.3002 65.3098Z" fill="white"/>
<path d="M112.986 103.06C114.684 95.8632 110.227 88.6517 103.03 86.9529C95.832 85.2542 88.6204 89.7116 86.9216 96.909C85.2229 104.106 89.6804 111.318 96.8778 113.017C104.075 114.715 111.287 110.258 112.986 103.06Z" fill="black"/>
<path d="M100 114.85C97.0661 114.85 94.1978 113.98 91.7582 112.35C89.3186 110.72 87.4172 108.403 86.2944 105.692C85.1715 102.981 84.8777 99.9987 85.4501 97.121C86.0225 94.2433 87.4355 91.6 89.5102 89.5253C91.5849 87.4505 94.2283 86.0376 97.106 85.4652C99.9837 84.8928 102.966 85.1866 105.677 86.3094C108.388 87.4323 110.705 89.3337 112.335 91.7733C113.965 94.2129 114.835 97.0811 114.835 100.015C114.831 103.948 113.267 107.719 110.486 110.501C107.704 113.282 103.933 114.846 100 114.85ZM100 88.0752C97.6372 88.0742 95.3271 88.774 93.362 90.0862C91.3969 91.3983 89.8651 93.2638 88.9604 95.4467C88.0557 97.6296 87.8186 100.032 88.2793 102.349C88.7401 104.667 89.8779 106.796 91.5488 108.466C93.2196 110.137 95.3484 111.275 97.6659 111.736C99.9835 112.196 102.386 111.959 104.568 111.055C106.751 110.15 108.617 108.618 109.929 106.653C111.241 104.688 111.941 102.378 111.94 100.015C111.936 96.8497 110.677 93.815 108.439 91.5767C106.2 89.3384 103.166 88.0791 100 88.0752Z" fill="white"/>
<path d="M103.139 107.583C107.32 105.851 109.306 101.057 107.574 96.8755C105.842 92.6941 101.048 90.7084 96.8668 92.4404C92.6853 94.1724 90.6996 98.9663 92.4316 103.148C94.1636 107.329 98.9575 109.315 103.139 107.583Z" fill="black"/>
<path d="M100 109.655C98.0932 109.656 96.2289 109.091 94.643 108.033C93.057 106.974 91.8206 105.469 91.0903 103.708C90.3599 101.946 90.1682 100.008 90.5396 98.1373C90.911 96.267 91.8287 94.5489 93.1767 93.2002C94.5247 91.8515 96.2424 90.9329 98.1125 90.5606C99.9826 90.1882 101.921 90.3788 103.683 91.1083C105.445 91.8378 106.951 93.0733 108.01 94.6587C109.07 96.2441 109.635 98.1081 109.635 100.015C109.632 102.57 108.617 105.02 106.81 106.827C105.004 108.634 102.555 109.651 100 109.655ZM100 93.27C98.6646 93.269 97.3588 93.6642 96.248 94.4055C95.1372 95.1468 94.2713 96.2009 93.7598 97.4345C93.2483 98.6681 93.1141 100.026 93.3744 101.336C93.6347 102.645 94.2777 103.849 95.222 104.793C96.1663 105.737 97.3695 106.38 98.6794 106.64C99.9892 106.901 101.347 106.767 102.58 106.255C103.814 105.744 104.868 104.878 105.61 103.767C106.351 102.656 106.746 101.35 106.745 100.015C106.742 98.2269 106.031 96.5128 104.767 95.2485C103.502 93.9841 101.788 93.2726 100 93.27Z" fill="white"/>
<path d="M100 90.9498C99.8078 90.9498 99.6233 90.8734 99.4874 90.7374C99.3514 90.6015 99.275 90.4171 99.275 90.2248V87.9698C99.2666 87.8698 99.2792 87.7693 99.3117 87.6744C99.3442 87.5796 99.3961 87.4925 99.464 87.4187C99.5319 87.3449 99.6144 87.286 99.7062 87.2457C99.7981 87.2054 99.8972 87.1846 99.9975 87.1846C100.098 87.1846 100.197 87.2054 100.289 87.2457C100.381 87.286 100.463 87.3449 100.531 87.4187C100.599 87.4925 100.651 87.5796 100.683 87.6744C100.716 87.7693 100.728 87.8698 100.72 87.9698V90.2248C100.721 90.3198 100.703 90.4139 100.667 90.5019C100.631 90.5898 100.578 90.6698 100.511 90.7371C100.444 90.8045 100.364 90.858 100.277 90.8945C100.189 90.931 100.095 90.9498 100 90.9498Z" fill="white"/>
<path d="M100 112.79C99.9048 112.79 99.8106 112.771 99.7226 112.735C99.6346 112.698 99.5547 112.645 99.4874 112.578C99.42 112.51 99.3666 112.43 99.3301 112.342C99.2937 112.254 99.275 112.16 99.275 112.065V109.81C99.2666 109.71 99.2792 109.609 99.3117 109.515C99.3442 109.42 99.3961 109.333 99.464 109.259C99.5319 109.185 99.6144 109.126 99.7062 109.086C99.7981 109.046 99.8972 109.025 99.9975 109.025C100.098 109.025 100.197 109.046 100.289 109.086C100.381 109.126 100.463 109.185 100.531 109.259C100.599 109.333 100.651 109.42 100.683 109.515C100.716 109.609 100.728 109.71 100.72 109.81V112.065C100.721 112.16 100.703 112.254 100.667 112.342C100.631 112.43 100.578 112.51 100.511 112.577C100.444 112.645 100.364 112.698 100.277 112.735C100.189 112.771 100.095 112.79 100 112.79Z" fill="white"/>
<path d="M112.07 100.74H109.815C109.715 100.748 109.614 100.736 109.52 100.703C109.425 100.671 109.338 100.619 109.264 100.551C109.19 100.483 109.131 100.401 109.091 100.309C109.051 100.217 109.03 100.118 109.03 100.017C109.03 99.9172 109.051 99.818 109.091 99.7262C109.131 99.6343 109.19 99.5519 109.264 99.484C109.338 99.4161 109.425 99.3642 109.52 99.3317C109.614 99.2992 109.715 99.2867 109.815 99.295H112.07C112.17 99.2867 112.271 99.2992 112.365 99.3317C112.46 99.3642 112.547 99.4161 112.621 99.484C112.695 99.5519 112.754 99.6343 112.794 99.7262C112.834 99.818 112.855 99.9172 112.855 100.017C112.855 100.118 112.834 100.217 112.794 100.309C112.754 100.401 112.695 100.483 112.621 100.551C112.547 100.619 112.46 100.671 112.365 100.703C112.271 100.736 112.17 100.748 112.07 100.74Z" fill="white"/>
<path d="M90.2101 100.74H87.9501C87.8502 100.748 87.7496 100.736 87.6547 100.703C87.5598 100.671 87.4729 100.619 87.3991 100.551C87.3253 100.483 87.2663 100.401 87.226 100.309C87.1857 100.217 87.165 100.118 87.165 100.017C87.165 99.9172 87.1857 99.818 87.226 99.7262C87.2663 99.6343 87.3253 99.5519 87.3991 99.484C87.4729 99.4161 87.5598 99.3642 87.6547 99.3317C87.7496 99.2992 87.8502 99.2867 87.9501 99.295H90.2101C90.3914 99.3101 90.5602 99.3927 90.6834 99.5265C90.8065 99.6604 90.8749 99.8356 90.8749 100.017C90.8749 100.199 90.8065 100.375 90.6834 100.508C90.5602 100.642 90.3914 100.725 90.2101 100.74Z" fill="white"/>
<path d="M106.92 93.8151C106.732 93.8129 106.553 93.7376 106.42 93.6051C106.293 93.4697 106.222 93.2909 106.222 93.1051C106.222 92.9193 106.293 92.7405 106.42 92.6051L108.015 91.0101C108.152 90.8796 108.335 90.8078 108.524 90.8101C108.713 90.8124 108.894 90.8886 109.028 91.0224C109.161 91.1562 109.238 91.337 109.24 91.5262C109.242 91.7154 109.17 91.898 109.04 92.0351L107.445 93.6301C107.301 93.7577 107.112 93.8241 106.92 93.8151Z" fill="white"/>
<path d="M91.4799 109.26C91.3864 109.259 91.2941 109.24 91.2083 109.203C91.1224 109.166 91.0448 109.112 90.9799 109.045C90.8492 108.911 90.7759 108.732 90.7759 108.545C90.7759 108.358 90.8492 108.179 90.9799 108.045L92.5749 106.45C92.6344 106.362 92.7125 106.289 92.8037 106.235C92.895 106.181 92.9971 106.147 93.1027 106.137C93.2083 106.127 93.3147 106.141 93.4144 106.177C93.5142 106.212 93.6048 106.27 93.6798 106.345C93.7548 106.42 93.8124 106.511 93.8483 106.61C93.8842 106.71 93.8975 106.817 93.8875 106.922C93.8774 107.028 93.8442 107.13 93.7902 107.221C93.7361 107.312 93.6626 107.39 93.5749 107.45L91.9799 109.045C91.9149 109.112 91.8373 109.166 91.7515 109.203C91.6657 109.24 91.5733 109.259 91.4799 109.26Z" fill="white"/>
<path d="M108.52 109.26C108.332 109.256 108.152 109.179 108.02 109.045L106.425 107.45C106.325 107.309 106.279 107.137 106.295 106.965C106.311 106.794 106.387 106.633 106.511 106.513C106.634 106.392 106.797 106.32 106.969 106.308C107.141 106.297 107.312 106.347 107.45 106.45L109.045 108.045C109.173 108.18 109.245 108.359 109.245 108.545C109.245 108.731 109.173 108.91 109.045 109.045C108.977 109.115 108.895 109.171 108.805 109.208C108.715 109.245 108.617 109.262 108.52 109.26Z" fill="white"/>
<path d="M93.0701 93.8151C92.8824 93.8129 92.703 93.7376 92.5701 93.6051L90.9751 92.0101C90.872 91.8717 90.8217 91.7011 90.8331 91.5289C90.8446 91.3567 90.9171 91.1943 91.0376 91.0708C91.1581 90.9473 91.3188 90.8708 91.4906 90.8551C91.6624 90.8394 91.8342 90.8855 91.9751 90.9851L93.5701 92.5801C93.6698 92.6808 93.7379 92.8086 93.7657 92.9477C93.7936 93.0867 93.7801 93.2309 93.7269 93.3623C93.6737 93.4937 93.5832 93.6067 93.4664 93.6872C93.3497 93.7676 93.2118 93.8121 93.0701 93.8151Z" fill="white"/>
<path d="M103.745 91.6951C103.651 91.6937 103.558 91.6751 103.47 91.6401C103.292 91.567 103.151 91.4264 103.077 91.2493C103.003 91.0721 103.002 90.8728 103.075 90.6951L103.94 88.6101C104.013 88.4331 104.153 88.2923 104.33 88.2186C104.507 88.145 104.705 88.1446 104.883 88.2176C105.06 88.2905 105.2 88.4308 105.274 88.6075C105.348 88.7843 105.348 88.983 105.275 89.1601L104.415 91.2501C104.359 91.3817 104.266 91.4941 104.147 91.5732C104.028 91.6523 103.888 91.6947 103.745 91.6951Z" fill="white"/>
<path d="M95.3898 111.85C95.2936 111.852 95.1983 111.833 95.1099 111.795C95.022 111.759 94.942 111.706 94.8748 111.639C94.8075 111.571 94.7543 111.492 94.718 111.404C94.6818 111.316 94.6633 111.222 94.6636 111.127C94.6639 111.032 94.683 110.938 94.7199 110.85L95.5849 108.765C95.621 108.677 95.6742 108.597 95.7414 108.53C95.8085 108.463 95.8882 108.409 95.9761 108.373C96.064 108.337 96.1582 108.318 96.2532 108.319C96.3482 108.319 96.4422 108.338 96.5298 108.375C96.7065 108.449 96.8466 108.59 96.9197 108.767C96.9928 108.944 96.9928 109.143 96.9198 109.32L96.0548 111.405C96.0004 111.537 95.9082 111.649 95.7898 111.728C95.6714 111.808 95.5322 111.85 95.3898 111.85Z" fill="white"/>
<path d="M111.13 105.35C111.035 105.352 110.942 105.333 110.855 105.295L108.77 104.43C108.682 104.394 108.603 104.341 108.535 104.274C108.468 104.207 108.415 104.128 108.379 104.04C108.342 103.952 108.323 103.859 108.323 103.764C108.323 103.669 108.341 103.575 108.377 103.487C108.414 103.4 108.467 103.32 108.533 103.253C108.6 103.186 108.68 103.132 108.767 103.096C108.855 103.06 108.949 103.041 109.044 103.041C109.138 103.04 109.232 103.059 109.32 103.095L111.405 103.96C111.557 104.026 111.682 104.142 111.758 104.288C111.835 104.435 111.86 104.603 111.828 104.766C111.796 104.928 111.709 105.075 111.582 105.181C111.455 105.287 111.296 105.347 111.13 105.35Z" fill="white"/>
<path d="M90.9549 96.9949C90.859 96.994 90.764 96.9754 90.6749 96.9399L88.59 96.0749C88.4951 96.0437 88.4077 95.9932 88.3332 95.9267C88.2588 95.8601 88.1988 95.7789 88.1572 95.6881C88.1156 95.5973 88.0932 95.4989 88.0914 95.399C88.0896 95.2992 88.1085 95.2 88.1468 95.1078C88.1852 95.0156 88.2422 94.9323 88.3142 94.8631C88.3862 94.7939 88.4718 94.7404 88.5655 94.7059C88.6593 94.6713 88.7591 94.6565 88.8588 94.6624C88.9585 94.6682 89.0559 94.6946 89.1449 94.7399L91.23 95.5999C91.3849 95.6639 91.5127 95.7796 91.5919 95.9274C91.6711 96.0751 91.6967 96.2456 91.6643 96.4101C91.6319 96.5745 91.5435 96.7227 91.4142 96.8293C91.2849 96.9359 91.1226 96.9944 90.9549 96.9949Z" fill="white"/>
<path d="M109.07 96.995C108.902 96.9945 108.74 96.936 108.611 96.8294C108.481 96.7228 108.393 96.5746 108.361 96.4102C108.328 96.2457 108.354 96.0752 108.433 95.9275C108.512 95.7797 108.64 95.664 108.795 95.6L110.88 94.74C111.057 94.667 111.256 94.6674 111.433 94.741C111.609 94.8146 111.749 94.9554 111.822 95.1325C111.895 95.3095 111.895 95.5083 111.821 95.685C111.748 95.8618 111.607 96.002 111.43 96.075L109.345 96.94C109.257 96.975 109.164 96.9936 109.07 96.995Z" fill="white"/>
<path d="M88.8698 105.35C88.7039 105.348 88.5436 105.289 88.4158 105.183C88.288 105.077 88.2004 104.931 88.1676 104.768C88.1349 104.606 88.1589 104.437 88.2357 104.289C88.3126 104.142 88.4375 104.026 88.5898 103.96L90.6747 103.095C90.8518 103.022 91.0506 103.022 91.2277 103.095C91.4048 103.168 91.5457 103.308 91.6198 103.485C91.6566 103.573 91.6757 103.667 91.6761 103.762C91.6764 103.857 91.6579 103.951 91.6216 104.039C91.5854 104.127 91.532 104.206 91.4648 104.274C91.3975 104.341 91.3177 104.394 91.2298 104.43L89.1447 105.295C89.0579 105.332 88.9643 105.351 88.8698 105.35Z" fill="white"/>
<path d="M104.61 111.85C104.467 111.851 104.326 111.809 104.207 111.73C104.088 111.651 103.995 111.537 103.94 111.405L103.07 109.35C102.996 109.172 102.996 108.973 103.07 108.795C103.144 108.617 103.285 108.476 103.462 108.402C103.64 108.329 103.84 108.329 104.017 108.403C104.195 108.476 104.336 108.617 104.41 108.795L105.27 110.88C105.307 110.968 105.326 111.062 105.326 111.157C105.327 111.252 105.308 111.346 105.272 111.434C105.235 111.522 105.182 111.601 105.115 111.669C105.048 111.736 104.968 111.789 104.88 111.825C104.793 111.852 104.701 111.86 104.61 111.85Z" fill="white"/>
<path d="M96.25 91.6951C96.1077 91.6943 95.9687 91.6517 95.8505 91.5726C95.7322 91.4935 95.6399 91.3813 95.585 91.2501L94.72 89.1601C94.6471 88.983 94.6474 88.7843 94.721 88.6075C94.7946 88.4308 94.9354 88.2905 95.1124 88.2176C95.2895 88.1446 95.4883 88.145 95.6651 88.2186C95.8418 88.2923 95.982 88.4331 96.055 88.6101L96.9199 90.6951C96.9916 90.8723 96.9909 91.0705 96.918 91.2472C96.8451 91.4239 96.7057 91.565 96.5299 91.6401C96.4408 91.6756 96.346 91.6942 96.25 91.6951Z" fill="white"/>
<path d="M268.801 134.017V138.27C262.538 138.1 256.761 136.408 251.472 133.191C245.886 129.848 241.4 125.363 238.015 119.734C234.672 114.064 233 107.78 233 100.882C233 93.984 234.672 87.6999 238.015 82.0293C241.4 76.3587 245.865 71.8519 251.408 68.5088C256.994 65.1234 263.088 63.4307 269.689 63.4307C276.333 63.4307 282.427 65.1234 287.971 68.5088C293.557 71.8519 298.021 76.3587 301.364 82.0293C304.75 87.6999 306.442 93.984 306.442 100.882C306.442 107.78 304.75 114.064 301.364 119.734C298.021 125.363 293.578 129.848 288.034 133.191C283.422 135.984 278.47 137.614 273.181 138.079V133.826C277.201 133.318 280.819 131.943 284.035 129.7C288.14 126.823 291.335 122.887 293.62 117.894C295.905 112.9 297.048 107.229 297.048 100.882C297.048 91.3604 294.53 83.5104 289.494 77.332C284.501 71.1536 277.899 67.9798 269.689 67.8105C264.315 67.8105 259.576 69.2493 255.471 72.127C251.366 74.9622 248.15 78.8766 245.822 83.8701C243.495 88.8636 242.331 94.5342 242.331 100.882C242.331 107.229 243.474 112.9 245.759 117.894C248.086 122.887 251.302 126.823 255.407 129.7C259.3 132.409 263.765 133.847 268.801 134.017ZM324.66 132.684H339.768C348.062 132.557 354.685 129.637 359.636 123.924C364.629 118.169 367.126 110.53 367.126 101.009C367.126 91.4873 364.587 83.8278 359.509 78.0303C354.431 72.2327 347.85 69.334 339.768 69.334H324.66V118.021H316.027V65.0176H339.768C346.411 65.0176 352.505 66.5833 358.049 69.7148C363.635 72.8464 368.099 77.1204 371.442 82.5371C374.785 87.9538 376.457 94.111 376.457 101.009C376.457 107.907 374.785 114.064 371.442 119.48C368.099 124.897 363.635 129.171 358.049 132.303C352.505 135.434 346.411 137 339.768 137H316.027C317.508 134.249 320.386 132.811 324.66 132.684ZM415.812 99.168L440.441 65.0176H445.583L418.288 103.04L415.812 99.168ZM416.257 105.896V137H407.624V108.88L376.457 65.0176H386.677L413.718 101.961L416.257 105.896ZM472.688 138.27C468.075 138.27 464.097 137.698 460.754 136.556C457.411 135.413 454.597 134.038 452.312 132.43C450.069 130.779 448.27 129.171 446.916 127.605L450.09 124.686C455.295 130.737 462.912 133.826 472.941 133.953C477.596 133.953 481.468 133.297 484.558 131.985C487.689 130.631 490.038 128.875 491.604 126.717C493.169 124.516 493.952 122.125 493.952 119.544C493.952 116.624 492.958 114.212 490.969 112.308C489.022 110.403 486.483 108.795 483.352 107.483C480.262 106.129 476.919 104.86 473.322 103.675C465.62 101.136 459.971 98.6602 456.374 96.248C451.084 92.778 448.439 88.1442 448.439 82.3467C448.439 76.8031 451 72.2751 456.12 68.7627C461.241 65.208 467.821 63.4307 475.861 63.4307C479.585 63.4307 483.034 64.0231 486.208 65.208C489.382 66.3506 492.111 67.7259 494.396 69.334C496.682 70.8997 498.417 72.3597 499.602 73.7139L496.364 76.6338L494.968 75.3008C494.037 74.3698 492.683 73.333 490.905 72.1904C489.17 71.0479 487.033 70.0322 484.494 69.1436C481.997 68.2126 479.183 67.7471 476.052 67.7471C470.339 67.7471 465.79 68.8685 462.404 71.1113C459.061 73.3118 457.39 75.999 457.39 79.1729C457.39 82.2197 458.384 84.7376 460.373 86.7266C462.362 88.6732 464.922 90.3236 468.054 91.6777C471.228 92.9896 474.613 94.238 478.21 95.4229C485.869 97.9196 491.477 100.353 495.031 102.723C500.279 106.15 502.902 110.763 502.902 116.561C502.902 120.369 501.612 123.924 499.03 127.225C496.491 130.483 492.958 133.149 488.43 135.223C483.902 137.254 478.654 138.27 472.688 138.27ZM536.291 138.27C531.678 138.27 527.701 137.698 524.357 136.556C521.014 135.413 518.2 134.038 515.915 132.43C513.672 130.779 511.874 129.171 510.52 127.605L513.693 124.686C518.898 130.737 526.516 133.826 536.545 133.953C541.2 133.953 545.072 133.297 548.161 131.985C551.293 130.631 553.641 128.875 555.207 126.717C556.773 124.516 557.556 122.125 557.556 119.544C557.556 116.624 556.561 114.212 554.572 112.308C552.626 110.403 550.087 108.795 546.955 107.483C543.866 106.129 540.523 104.86 536.926 103.675C529.224 101.136 523.575 98.6602 519.978 96.248C514.688 92.778 512.043 88.1442 512.043 82.3467C512.043 76.8031 514.603 72.2751 519.724 68.7627C524.844 65.208 531.424 63.4307 539.465 63.4307C543.189 63.4307 546.638 64.0231 549.812 65.208C552.985 66.3506 555.715 67.7259 558 69.334C560.285 70.8997 562.02 72.3597 563.205 73.7139L559.968 76.6338L558.571 75.3008C557.64 74.3698 556.286 73.333 554.509 72.1904C552.774 71.0479 550.637 70.0322 548.098 69.1436C545.601 68.2126 542.787 67.7471 539.655 67.7471C533.942 67.7471 529.393 68.8685 526.008 71.1113C522.665 73.3118 520.993 75.999 520.993 79.1729C520.993 82.2197 521.988 84.7376 523.977 86.7266C525.965 88.6732 528.526 90.3236 531.657 91.6777C534.831 92.9896 538.216 94.238 541.813 95.4229C549.473 97.9196 555.08 100.353 558.635 102.723C563.882 106.15 566.506 110.763 566.506 116.561C566.506 120.369 565.215 123.924 562.634 127.225C560.095 130.483 556.561 133.149 552.033 135.223C547.505 137.254 542.258 138.27 536.291 138.27ZM629.284 137H576.027V65.0176H627.824V69.334H584.66V98.8506H623.508V103.167H584.66V132.684H629.284V137ZM678.225 99.168L702.854 65.0176H707.995L680.7 103.04L678.225 99.168ZM678.669 105.896V137H670.036V108.88L638.869 65.0176H649.089L676.13 101.961L678.669 105.896Z" fill="white"/>
</svg>
