<svg width="475" height="76" viewBox="0 0 475 76" fill="none" xmlns="http://www.w3.org/2000/svg">
<path d="M445.225 36.0068L469.854 1.85645H474.995L447.7 39.8789L445.225 36.0068ZM445.669 42.7354V73.8389H437.036V45.7188L405.869 1.85645H416.089L443.13 38.7998L445.669 42.7354Z" fill="white"/>
<path d="M396.284 73.8389H343.027V1.85645H394.824V6.17285H351.66V35.6895H390.508V40.0059H351.66V69.5225H396.284V73.8389Z" fill="white"/>
<path d="M303.291 75.1084C298.678 75.1084 294.701 74.5371 291.357 73.3945C288.014 72.252 285.2 70.8766 282.915 69.2686C280.672 67.6182 278.874 66.0101 277.52 64.4443L280.693 61.5244C285.898 67.5758 293.516 70.665 303.545 70.792C308.2 70.792 312.072 70.1361 315.161 68.8242C318.293 67.4701 320.641 65.7139 322.207 63.5557C323.773 61.3551 324.556 58.9642 324.556 56.3828C324.556 53.4629 323.561 51.0508 321.572 49.1465C319.626 47.2422 317.087 45.6341 313.955 44.3223C310.866 42.9681 307.523 41.6986 303.926 40.5137C296.224 37.9746 290.575 35.499 286.978 33.0869C281.688 29.6169 279.043 24.9831 279.043 19.1855C279.043 13.6419 281.603 9.11393 286.724 5.60156C291.844 2.04688 298.424 0.269531 306.465 0.269531C310.189 0.269531 313.638 0.861979 316.812 2.04688C319.985 3.18945 322.715 4.56478 325 6.17285C327.285 7.73861 329.02 9.19857 330.205 10.5527L326.968 13.4727L325.571 12.1396C324.64 11.2087 323.286 10.1719 321.509 9.0293C319.774 7.88672 317.637 6.87109 315.098 5.98242C312.601 5.05143 309.787 4.58594 306.655 4.58594C300.942 4.58594 296.393 5.70736 293.008 7.9502C289.665 10.1507 287.993 12.8379 287.993 16.0117C287.993 19.0586 288.988 21.5765 290.977 23.5654C292.965 25.512 295.526 27.1624 298.657 28.5166C301.831 29.8285 305.216 31.0768 308.813 32.2617C316.473 34.7585 322.08 37.1917 325.635 39.5615C330.882 42.9893 333.506 47.6019 333.506 53.3994C333.506 57.208 332.215 60.7627 329.634 64.0635C327.095 67.3219 323.561 69.988 319.033 72.0615C314.505 74.0928 309.258 75.1084 303.291 75.1084Z" fill="white"/>
<path d="M239.688 75.1084C235.075 75.1084 231.097 74.5371 227.754 73.3945C224.411 72.252 221.597 70.8766 219.312 69.2686C217.069 67.6182 215.27 66.0101 213.916 64.4443L217.09 61.5244C222.295 67.5758 229.912 70.665 239.941 70.792C244.596 70.792 248.468 70.1361 251.558 68.8242C254.689 67.4701 257.038 65.7139 258.604 63.5557C260.169 61.3551 260.952 58.9642 260.952 56.3828C260.952 53.4629 259.958 51.0508 257.969 49.1465C256.022 47.2422 253.483 45.6341 250.352 44.3223C247.262 42.9681 243.919 41.6986 240.322 40.5137C232.62 37.9746 226.971 35.499 223.374 33.0869C218.084 29.6169 215.439 24.9831 215.439 19.1855C215.439 13.6419 218 9.11393 223.12 5.60156C228.241 2.04688 234.821 0.269531 242.861 0.269531C246.585 0.269531 250.034 0.861979 253.208 2.04688C256.382 3.18945 259.111 4.56478 261.396 6.17285C263.682 7.73861 265.417 9.19857 266.602 10.5527L263.364 13.4727L261.968 12.1396C261.037 11.2087 259.683 10.1719 257.905 9.0293C256.17 7.88672 254.033 6.87109 251.494 5.98242C248.997 5.05143 246.183 4.58594 243.052 4.58594C237.339 4.58594 232.79 5.70736 229.404 7.9502C226.061 10.1507 224.39 12.8379 224.39 16.0117C224.39 19.0586 225.384 21.5765 227.373 23.5654C229.362 25.512 231.922 27.1624 235.054 28.5166C238.228 29.8285 241.613 31.0768 245.21 32.2617C252.869 34.7585 258.477 37.1917 262.031 39.5615C267.279 42.9893 269.902 47.6019 269.902 53.3994C269.902 57.208 268.612 60.7627 266.03 64.0635C263.491 67.3219 259.958 69.988 255.43 72.0615C250.902 74.0928 245.654 75.1084 239.688 75.1084Z" fill="white"/>
<path d="M182.812 36.0068L207.441 1.85645H212.583L185.288 39.8789L182.812 36.0068ZM183.257 42.7354V73.8389H174.624V45.7188L143.457 1.85645H153.677L180.718 38.7998L183.257 42.7354Z" fill="white"/>
<path d="M91.6602 69.5225H106.768C115.062 69.3955 121.685 66.4756 126.636 60.7627C131.629 55.0075 134.126 47.3691 134.126 37.8477C134.126 28.3262 131.587 20.6667 126.509 14.8691C121.431 9.07161 114.85 6.17285 106.768 6.17285H91.6602V54.8594H83.0273V1.85645H106.768C113.411 1.85645 119.505 3.4222 125.049 6.55371C130.635 9.68522 135.099 13.9593 138.442 19.376C141.785 24.7926 143.457 30.9499 143.457 37.8477C143.457 44.7454 141.785 50.9027 138.442 56.3193C135.099 61.736 130.635 66.0101 125.049 69.1416C119.505 72.2731 113.411 73.8389 106.768 73.8389H83.0273C84.5085 71.0882 87.3861 69.6494 91.6602 69.5225Z" fill="white"/>
<path d="M35.8008 70.8555V75.1084C29.5378 74.9391 23.7614 73.2464 18.4717 70.0303C12.8857 66.6872 8.40007 62.2015 5.01465 56.5732C1.67155 50.9027 0 44.6185 0 37.7207C0 30.8229 1.67155 24.5387 5.01465 18.8682C8.40007 13.1976 12.8646 8.69075 18.4082 5.34766C23.9941 1.96224 30.0879 0.269531 36.6895 0.269531C43.3333 0.269531 49.4271 1.96224 54.9707 5.34766C60.5566 8.69075 65.0212 13.1976 68.3643 18.8682C71.7497 24.5387 73.4424 30.8229 73.4424 37.7207C73.4424 44.6185 71.7497 50.9027 68.3643 56.5732C65.0212 62.2015 60.5778 66.6872 55.0342 70.0303C50.4216 72.8232 45.4704 74.4525 40.1807 74.918V70.665C44.2008 70.1572 47.819 68.7819 51.0352 66.5391C55.14 63.6615 58.335 59.7259 60.6201 54.7324C62.9053 49.7389 64.0479 44.0684 64.0479 37.7207C64.0479 28.1992 61.5299 20.3493 56.4941 14.1709C51.5007 7.99251 44.8991 4.81869 36.6895 4.64941C31.3151 4.64941 26.5755 6.08822 22.4707 8.96582C18.3659 11.8011 15.1497 15.7155 12.8223 20.709C10.4948 25.7025 9.33105 31.373 9.33105 37.7207C9.33105 44.0684 10.4736 49.7389 12.7588 54.7324C15.0863 59.7259 18.3024 63.6615 22.4072 66.5391C26.3005 69.2474 30.765 70.6862 35.8008 70.8555Z" fill="white"/>
</svg>
